<?xml version="1.0" standalone="no"?>
<!DOCTYPE svg PUBLIC "-//W3C//DTD SVG 20010904//EN"
 "http://www.w3.org/TR/2001/REC-SVG-20010904/DTD/svg10.dtd">
<svg version="1.0" xmlns="http://www.w3.org/2000/svg"
 width="689.000000pt" height="362.000000pt" viewBox="0 0 689.000000 362.000000"
 preserveAspectRatio="xMidYMid meet">

<g transform="translate(0.000000,362.000000) scale(0.100000,-0.100000)"
fill="#000000" stroke="none">
<path d="M890 2945 c-95 -19 -173 -57 -234 -115 -68 -64 -95 -125 -103 -230
l-6 -80 197 0 196 0 0 58 c0 111 58 166 135 129 46 -22 62 -78 46 -157 -15
-78 -72 -120 -163 -120 l-28 0 0 -110 0 -110 53 0 c71 0 124 -16 139 -43 6
-12 12 -51 12 -87 0 -121 -51 -175 -142 -151 -49 14 -70 50 -78 140 l-7 71
-127 0 c-70 0 -155 -3 -189 -6 l-61 -7 0 -66 c0 -158 80 -284 219 -350 54 -25
63 -26 224 -26 104 0 167 -4 168 -10 11 -112 -37 -215 -99 -215 -44 0 -73 38
-81 107 l-6 58 -178 8 c-99 5 -186 6 -194 2 -13 -4 -15 -17 -10 -65 13 -120
69 -216 161 -275 76 -47 140 -66 252 -72 180 -10 289 22 385 114 70 66 113
155 141 291 16 82 19 127 16 292 -3 180 -5 200 -29 266 -14 39 -43 96 -63 127
l-38 57 35 42 c60 75 71 104 71 198 0 75 -3 91 -29 138 -36 66 -101 127 -170
158 -109 50 -280 66 -415 39z"/>
<path d="M1994 2481 c-207 -33 -340 -155 -352 -322 -6 -94 16 -164 75 -229
l46 -52 -47 -40 c-26 -22 -59 -63 -74 -92 -24 -46 -27 -62 -27 -151 0 -79 4
-107 19 -135 10 -19 24 -38 30 -42 14 -10 308 -10 322 0 6 4 14 37 17 75 12
129 57 187 134 172 42 -8 63 -39 63 -95 0 -71 -42 -130 -190 -270 -243 -229
-293 -282 -329 -354 -28 -55 -35 -81 -39 -146 l-5 -80 467 0 466 0 0 120 0
120 -230 0 c-132 0 -230 4 -230 9 0 5 48 52 108 104 147 129 283 265 322 322
42 61 60 122 60 205 0 99 -23 155 -92 223 l-59 58 45 50 c58 65 79 128 74 222
-7 148 -102 256 -267 307 -72 23 -229 33 -307 21z m158 -242 c64 -34 63 -204
-1 -239 -22 -11 -61 -13 -86 -4 -28 11 -45 60 -45 128 0 55 4 69 26 95 28 33
67 41 106 20z"/>
<path d="M837 2414 c-10 -10 -9 -192 1 -198 4 -2 14 -1 20 3 9 5 12 35 10 101
-3 86 -12 113 -31 94z"/>
<path d="M762 2305 c2 -48 7 -85 13 -85 6 0 11 37 13 85 2 72 0 85 -13 85 -13
0 -15 -13 -13 -85z"/>
<path d="M695 2348 c-9 -24 -1 -128 10 -131 13 -3 19 123 6 136 -7 7 -12 5
-16 -5z"/>
<path d="M640 2277 c0 -31 3 -57 8 -57 4 0 7 22 7 49 0 27 -3 53 -7 57 -5 4
-8 -18 -8 -49z"/>
<path d="M593 2255 c0 -27 2 -38 4 -22 2 15 2 37 0 50 -2 12 -4 0 -4 -28z"/>
</g>
</svg>
