<?xml version="1.0" encoding="UTF-8"?>
<!DOCTYPE svg PUBLIC "-//W3C//DTD SVG 1.1//EN" "http://www.w3.org/Graphics/SVG/1.1/DTD/svg11.dtd">
<svg xmlns="http://www.w3.org/2000/svg" version="1.1" width="689px" height="362px" style="shape-rendering:geometricPrecision; text-rendering:geometricPrecision; image-rendering:optimizeQuality; fill-rule:evenodd; clip-rule:evenodd" xmlns:xlink="http://www.w3.org/1999/xlink">
<g><path style="opacity:1" fill="#993947" d="M 122.5,67.5 C 113.518,66.7817 104.518,66.4484 95.5,66.5C 92.8333,66.8333 90.1667,67.1667 87.5,67.5C 86.1667,67.5 84.8333,67.5 83.5,67.5C 86.2026,66.037 89.2026,65.2037 92.5,65C 99.5,64.3333 106.5,64.3333 113.5,65C 116.742,65.4061 119.742,66.2395 122.5,67.5 Z"/></g>
<g><path style="opacity:1" fill="#da3b5b" d="M 95.5,66.5 C 95.5,67.5 95.5,68.5 95.5,69.5C 97.1992,69.3398 98.8659,69.5065 100.5,70C 99.6634,71.0113 99.33,72.1779 99.5,73.5C 97.4205,74.0444 95.4205,74.8777 93.5,76C 95,76.8333 96.1667,78 97,79.5C 97.3333,79.1667 97.6667,78.8333 98,78.5C 98.4828,79.448 98.6495,80.448 98.5,81.5C 97.325,81.281 96.325,81.6143 95.5,82.5C 95.5,84.1667 95.5,85.8333 95.5,87.5C 98.6417,88.1674 101.642,88.834 104.5,89.5C 100.61,88.7768 97.9437,90.1102 96.5,93.5C 96.1667,94.1667 95.8333,94.8333 95.5,95.5C 94.5,95.8333 93.8333,96.5 93.5,97.5C 92.5233,100.287 92.19,103.287 92.5,106.5C 89.5275,107.524 86.5275,107.357 83.5,106C 85.1316,96.7395 86.1316,87.2395 86.5,77.5C 87.5,77.1667 88.1667,76.5 88.5,75.5C 87.0186,74.5197 85.6853,73.353 84.5,72C 85.2225,70.2495 86.2225,68.7495 87.5,67.5C 90.1667,67.1667 92.8333,66.8333 95.5,66.5 Z"/></g>
<g><path style="opacity:0.925" fill="#933f3f" d="M 123.5,67.5 C 129.006,68.3245 133.673,70.6579 137.5,74.5C 133.937,73.7176 130.603,72.3843 127.5,70.5C 127.158,69.6618 126.492,69.3284 125.5,69.5C 124.833,68.8333 124.167,68.1667 123.5,67.5 Z"/></g>
<g><path style="opacity:1" fill="#983653" d="M 83.5,67.5 C 81.882,68.4511 80.5487,69.7844 79.5,71.5C 75.592,72.1206 72.2587,73.7873 69.5,76.5C 65.81,80.5242 61.81,84.1909 57.5,87.5C 60.9268,79.572 66.5935,73.7387 74.5,70C 77.3527,68.5699 80.3527,67.7366 83.5,67.5 Z"/></g>
<g><path style="opacity:0.999" fill="#e7e7e7" d="M 441.5,71.5 C 447.167,71.5 452.833,71.5 458.5,71.5C 458.5,101.5 458.5,131.5 458.5,161.5C 452.833,161.5 447.167,161.5 441.5,161.5C 441.5,131.5 441.5,101.5 441.5,71.5 Z"/></g>
<g><path style="opacity:0.533" fill="#696869" d="M 474.5,71.5 C 473.5,73.1667 472.167,74.5 470.5,75.5C 470.833,73.1667 472.167,71.8333 474.5,71.5 Z"/></g>
<g><path style="opacity:0.342" fill="#626060" d="M 440.5,71.5 C 440.833,71.5 441.167,71.5 441.5,71.5C 441.5,101.5 441.5,131.5 441.5,161.5C 447.167,161.5 452.833,161.5 458.5,161.5C 452.69,162.49 446.69,162.823 440.5,162.5C 440.5,132.167 440.5,101.833 440.5,71.5 Z"/></g>
<g><path style="opacity:0.706" fill="#873835" d="M 137.5,74.5 C 140.089,75.4194 142.089,77.086 143.5,79.5C 140.712,78.7735 138.712,77.1068 137.5,74.5 Z"/></g>
<g><path style="opacity:1" fill="#e8484a" d="M 127.5,70.5 C 130.603,72.3843 133.937,73.7176 137.5,74.5C 138.712,77.1068 140.712,78.7735 143.5,79.5C 143.5,80.8333 143.5,82.1667 143.5,83.5C 141.256,81.0163 138.923,78.5163 136.5,76C 134.19,75.5034 131.857,75.3367 129.5,75.5C 129.5,76.8333 129.5,78.1667 129.5,79.5C 130.5,79.5 131.5,79.5 132.5,79.5C 132.501,87.5121 132.834,95.5121 133.5,103.5C 133.889,107.819 132.555,111.319 129.5,114C 131.508,116.366 133.508,118.699 135.5,121C 135.361,122.301 134.695,123.134 133.5,123.5C 133.114,121.063 131.947,119.063 130,117.5C 129.667,117.833 129.333,118.167 129,118.5C 126.14,115.766 122.973,113.766 119.5,112.5C 119.411,109.275 120.077,106.275 121.5,103.5C 119.516,95.6369 119.016,87.6369 120,79.5C 120.645,78.354 121.478,77.354 122.5,76.5C 120.171,71.9171 121.838,69.9171 127.5,70.5 Z"/></g>
<g><path style="opacity:1" fill="#e94d45" d="M 143.5,83.5 C 145.223,85.2528 146.723,87.2528 148,89.5C 149.132,98.0408 148.465,106.374 146,114.5C 142.495,115.503 140.995,117.837 141.5,121.5C 139.517,121.157 138.183,121.824 137.5,123.5C 136.739,124.391 135.739,125.058 134.5,125.5C 133.702,125.043 133.369,124.376 133.5,123.5C 134.695,123.134 135.361,122.301 135.5,121C 133.508,118.699 131.508,116.366 129.5,114C 132.555,111.319 133.889,107.819 133.5,103.5C 132.834,95.5121 132.501,87.5121 132.5,79.5C 131.5,79.5 130.5,79.5 129.5,79.5C 129.5,78.1667 129.5,76.8333 129.5,75.5C 131.857,75.3367 134.19,75.5034 136.5,76C 138.923,78.5163 141.256,81.0163 143.5,83.5 Z"/></g>
<g><path style="opacity:1" fill="#c63665" d="M 69.5,76.5 C 70.0035,80.3354 71.0035,80.3354 72.5,76.5C 78.0427,77.9183 78.376,78.9183 73.5,79.5C 73.3337,86.175 73.5004,92.8417 74,99.5C 75.951,101.137 75.7843,102.637 73.5,104C 79.5573,108.654 85.8906,109.487 92.5,106.5C 92.19,103.287 92.5233,100.287 93.5,97.5C 93.5,101.5 93.5,105.5 93.5,109.5C 80.8333,109.5 68.1667,109.5 55.5,109.5C 55.0912,102.017 55.7579,94.6836 57.5,87.5C 61.81,84.1909 65.81,80.5242 69.5,76.5 Z"/></g>
<g><path style="opacity:1" fill="#dcdbdc" d="M 488.5,76.5 C 488.243,79.9322 487.576,83.2655 486.5,86.5C 483.255,89.5303 479.588,90.1969 475.5,88.5C 474.71,87.2058 473.71,86.0391 472.5,85C 473.609,83.187 472.942,82.3537 470.5,82.5C 470.5,80.1667 470.5,77.8333 470.5,75.5C 472.167,74.5 473.5,73.1667 474.5,71.5C 477.604,69.0757 480.938,68.909 484.5,71C 486.452,72.4119 487.785,74.2453 488.5,76.5 Z"/></g>
<g><path style="opacity:1" fill="#989596" d="M 470.5,75.5 C 470.5,77.8333 470.5,80.1667 470.5,82.5C 472.942,82.3537 473.609,83.187 472.5,85C 473.71,86.0391 474.71,87.2058 475.5,88.5C 469.778,85.7234 468.112,81.3901 470.5,75.5 Z"/></g>
<g><path style="opacity:0.925" fill="#858283" d="M 488.5,76.5 C 489.629,78.6282 489.796,80.9615 489,83.5C 488.623,84.9423 487.79,85.9423 486.5,86.5C 487.576,83.2655 488.243,79.9322 488.5,76.5 Z"/></g>
<g><path style="opacity:0.263" fill="#6e212c" d="M 104.5,89.5 C 105.71,89.9321 106.71,90.5987 107.5,91.5C 103.513,91.0097 99.8462,91.6764 96.5,93.5C 97.9437,90.1102 100.61,88.7768 104.5,89.5 Z"/></g>
<g><path style="opacity:0.678" fill="#787576" d="M 337.5,95.5 C 328.256,94.7905 319.256,95.7905 310.5,98.5C 312.385,96.6885 314.719,95.5218 317.5,95C 324.365,92.8711 331.031,93.0378 337.5,95.5 Z"/></g>
<g><path style="opacity:0.012" fill="#1a1a1a" d="M 380.5,95.5 C 376.629,95.185 372.962,95.5184 369.5,96.5C 369.167,96.5 368.833,96.5 368.5,96.5C 367.262,96.19 367.262,95.69 368.5,95C 372.689,94.1881 376.689,94.3547 380.5,95.5 Z"/></g>
<g><path style="opacity:0.504" fill="#777475" d="M 398.5,95.5 C 403.65,94.3493 408.984,94.1826 414.5,95C 415.416,95.2784 416.082,95.7784 416.5,96.5C 410.545,95.6365 404.545,95.3032 398.5,95.5 Z"/></g>
<g><path style="opacity:0.502" fill="#7a7879" d="M 545.5,95.5 C 539.464,95.3599 533.464,95.6932 527.5,96.5C 530.695,94.9704 534.195,94.3037 538,94.5C 540.69,94.5029 543.19,94.8362 545.5,95.5 Z"/></g>
<g><path style="opacity:0.671" fill="#807e7e" d="M 613.5,96.5 C 604.408,94.929 595.408,95.2623 586.5,97.5C 595.361,92.8541 604.361,92.5207 613.5,96.5 Z"/></g>
<g><path style="opacity:1" fill="#e3e3e3" d="M 545.5,95.5 C 549.272,95.8838 552.272,97.5505 554.5,100.5C 555.413,102.086 555.413,103.586 554.5,105C 555.448,105.483 556.448,105.649 557.5,105.5C 557.98,108.443 558.98,111.11 560.5,113.5C 560.5,129.5 560.5,145.5 560.5,161.5C 554.833,161.5 549.167,161.5 543.5,161.5C 543.667,146.83 543.5,132.163 543,117.5C 542.617,116.944 542.117,116.611 541.5,116.5C 540.4,115.395 539.733,114.062 539.5,112.5C 539.027,111.094 538.027,110.427 536.5,110.5C 532.818,110.335 529.152,110.501 525.5,111C 523,112.167 521.167,114 520,116.5C 518.882,131.605 518.049,146.605 517.5,161.5C 511.833,161.5 506.167,161.5 500.5,161.5C 499.844,139.474 500.511,117.808 502.5,96.5C 507.167,96.5 511.833,96.5 516.5,96.5C 516.18,99.8984 516.513,103.232 517.5,106.5C 519.278,104.736 520.611,102.736 521.5,100.5C 523.147,98.6736 525.147,97.3403 527.5,96.5C 533.464,95.6932 539.464,95.3599 545.5,95.5 Z"/></g>
<g><path style="opacity:1" fill="#dedede" d="M 337.5,95.5 C 338.791,95.2627 339.791,95.596 340.5,96.5C 340.94,99.263 342.273,100.263 344.5,99.5C 348.339,100.721 348.339,101.388 344.5,101.5C 344.34,103.199 344.506,104.866 345,106.5C 345.117,103.371 346.617,102.205 349.5,103C 350.5,104.667 351.833,106 353.5,107C 352.483,108.049 352.316,109.216 353,110.5C 353.667,111.833 354.333,111.833 355,110.5C 355.902,112.431 357.069,114.097 358.5,115.5C 363.841,131.967 360.175,146.133 347.5,158C 345.593,159.122 343.593,159.955 341.5,160.5C 339.214,160.595 337.214,161.262 335.5,162.5C 327.627,164.152 319.96,163.485 312.5,160.5C 312.027,159.094 311.027,158.427 309.5,158.5C 298.877,151.757 293.877,141.924 294.5,129C 294.548,126.081 294.881,123.248 295.5,120.5C 296.924,118.485 297.59,116.152 297.5,113.5C 297.5,113.167 297.5,112.833 297.5,112.5C 298.906,112.027 299.573,111.027 299.5,109.5C 301.026,108.895 302.026,107.729 302.5,106C 303.448,105.517 304.448,105.351 305.5,105.5C 305.392,103.486 306.058,101.82 307.5,100.5C 307.973,99.0937 308.973,98.427 310.5,98.5C 319.256,95.7905 328.256,94.7905 337.5,95.5 Z M 334.5,110.5 C 335.167,111.833 336.167,112.833 337.5,113.5C 337.932,114.71 338.599,115.71 339.5,116.5C 339.721,119.067 340.388,121.401 341.5,123.5C 341.5,127.167 341.5,130.833 341.5,134.5C 340.262,136.214 339.595,138.214 339.5,140.5C 338.18,142.463 336.846,144.463 335.5,146.5C 330.952,148.592 326.286,148.925 321.5,147.5C 318.8,145.766 316.8,143.432 315.5,140.5C 315.125,138.302 314.458,136.302 313.5,134.5C 312.907,127.494 314.074,120.827 317,114.5C 321.947,108.97 327.78,107.637 334.5,110.5 Z"/></g>
<g><path style="opacity:1" fill="#e6e6e6" d="M 398.5,95.5 C 404.545,95.3032 410.545,95.6365 416.5,96.5C 418.38,96.2291 419.713,96.8958 420.5,98.5C 421.167,99.8333 422.167,100.833 423.5,101.5C 425.822,102.802 427.155,104.802 427.5,107.5C 428.446,125.472 428.779,143.472 428.5,161.5C 422.974,161.821 417.64,161.488 412.5,160.5C 412.667,146.829 412.5,133.163 412,119.5C 411.722,118.584 411.222,117.918 410.5,117.5C 410.5,117.167 410.5,116.833 410.5,116.5C 410.817,113.454 409.484,111.787 406.5,111.5C 399.089,108.878 393.089,110.545 388.5,116.5C 387.883,116.611 387.383,116.944 387,117.5C 386.5,132.163 386.333,146.83 386.5,161.5C 380.642,161.822 374.975,161.489 369.5,160.5C 369.5,139.167 369.5,117.833 369.5,96.5C 374.833,96.5 380.167,96.5 385.5,96.5C 385.335,99.8499 385.502,103.183 386,106.5C 387.481,105.529 388.315,104.196 388.5,102.5C 390.775,98.6927 394.108,96.3593 398.5,95.5 Z"/></g>
<g><path style="opacity:0.318" fill="#757374" d="M 388.5,102.5 C 388.315,104.196 387.481,105.529 386,106.5C 385.502,103.183 385.335,99.8499 385.5,96.5C 380.167,96.5 374.833,96.5 369.5,96.5C 372.962,95.5184 376.629,95.185 380.5,95.5C 382.226,95.1854 383.893,95.0187 385.5,95C 386.167,97 386.833,99 387.5,101C 386.16,103.179 386.493,103.679 388.5,102.5 Z"/></g>
<g><path style="opacity:0.633" fill="#7c7a7b" d="M 521.5,100.5 C 520.611,102.736 519.278,104.736 517.5,106.5C 516.513,103.232 516.18,99.8984 516.5,96.5C 511.833,96.5 507.167,96.5 502.5,96.5C 502.5,96.1667 502.5,95.8333 502.5,95.5C 507.233,95.7768 511.9,95.4435 516.5,94.5C 518.69,95.7476 519.023,97.4143 517.5,99.5C 518,100.5 518.5,101.5 519,102.5C 519.708,101.619 520.542,100.953 521.5,100.5 Z"/></g>
<g><path style="opacity:1" fill="#e3e2e2" d="M 613.5,96.5 C 617.461,97.4792 620.794,99.4792 623.5,102.5C 623.738,104.404 624.738,105.738 626.5,106.5C 626.427,108.027 627.094,109.027 628.5,109.5C 628.415,112.649 629.415,115.316 631.5,117.5C 631.5,117.833 631.5,118.167 631.5,118.5C 631.5,123.167 631.5,127.833 631.5,132.5C 616.5,132.5 601.5,132.5 586.5,132.5C 586.232,134.099 586.566,135.432 587.5,136.5C 588.498,140.505 590.498,143.839 593.5,146.5C 594.607,148.969 596.607,149.969 599.5,149.5C 600.5,149.5 601.5,149.5 602.5,149.5C 604.527,149.662 606.527,149.495 608.5,149C 609.056,148.617 609.389,148.117 609.5,147.5C 610.795,146.512 612.128,145.512 613.5,144.5C 614.906,144.027 615.573,143.027 615.5,141.5C 621.271,140.887 626.604,141.554 631.5,143.5C 630.126,151.21 625.792,156.544 618.5,159.5C 615.215,159.928 612.215,160.928 609.5,162.5C 604.4,163.8 599.4,163.8 594.5,162.5C 592.485,161.076 590.152,160.41 587.5,160.5C 585.847,160.34 584.514,159.674 583.5,158.5C 583.027,157.094 582.027,156.427 580.5,156.5C 577.027,154.363 574.694,151.363 573.5,147.5C 573.34,145.847 572.674,144.514 571.5,143.5C 569.955,132.766 570.289,122.099 572.5,111.5C 573.443,108.6 575.11,106.267 577.5,104.5C 578.833,103.833 579.833,102.833 580.5,101.5C 581.802,99.1782 583.802,97.8449 586.5,97.5C 595.408,95.2623 604.408,94.929 613.5,96.5 Z M 597.5,108.5 C 597.833,108.5 598.167,108.5 598.5,108.5C 603.375,108.237 607.708,109.57 611.5,112.5C 611.932,113.71 612.599,114.71 613.5,115.5C 613.357,117.262 613.691,118.929 614.5,120.5C 610,120.833 605.5,121.167 601,121.5C 596.114,121.493 591.614,120.826 587.5,119.5C 588.931,118.22 589.598,116.553 589.5,114.5C 591.167,113.5 592.5,112.167 593.5,110.5C 595.153,110.34 596.486,109.674 597.5,108.5 Z"/></g>
<g><path style="opacity:0.02" fill="#515051" d="M 420.5,98.5 C 422.5,98.5 423.5,99.5 423.5,101.5C 422.167,100.833 421.167,99.8333 420.5,98.5 Z"/></g>
<g><path style="opacity:0.294" fill="#6b2c36" d="M 95.5,95.5 C 95.0076,100.324 94.341,104.99 93.5,109.5C 93.5,105.5 93.5,101.5 93.5,97.5C 93.8333,96.5 94.5,95.8333 95.5,95.5 Z"/></g>
<g><path style="opacity:0.333" fill="#6d2c28" d="M 149.5,90.5 C 150.954,93.7178 151.621,97.2178 151.5,101C 151.672,104.477 151.006,107.644 149.5,110.5C 150.774,103.839 150.774,97.1721 149.5,90.5 Z"/></g>
<g><path style="opacity:1" fill="#bdbabb" d="M 340.5,96.5 C 349.894,99.5622 355.894,105.896 358.5,115.5C 357.069,114.097 355.902,112.431 355,110.5C 354.333,111.833 353.667,111.833 353,110.5C 352.316,109.216 352.483,108.049 353.5,107C 351.833,106 350.5,104.667 349.5,103C 346.617,102.205 345.117,103.371 345,106.5C 344.506,104.866 344.34,103.199 344.5,101.5C 348.339,101.388 348.339,100.721 344.5,99.5C 342.273,100.263 340.94,99.263 340.5,96.5 Z"/></g>
<g><path style="opacity:0.678" fill="#adadad" d="M 368.5,96.5 C 368.833,96.5 369.167,96.5 369.5,96.5C 369.5,117.833 369.5,139.167 369.5,160.5C 369.167,160.5 368.833,160.5 368.5,160.5C 368.426,139.011 368.426,117.678 368.5,96.5 Z"/></g>
<g><path style="opacity:0.42" fill="#5a5858" d="M 580.5,101.5 C 579.833,102.833 578.833,103.833 577.5,104.5C 577.5,102.5 578.5,101.5 580.5,101.5 Z"/></g>
<g><path style="opacity:0.651" fill="#706f6f" d="M 623.5,102.5 C 625.262,103.262 626.262,104.596 626.5,106.5C 624.738,105.738 623.738,104.404 623.5,102.5 Z"/></g>
<g><path style="opacity:1" fill="#aaa8a9" d="M 307.5,100.5 C 306.058,101.82 305.392,103.486 305.5,105.5C 304.448,105.351 303.448,105.517 302.5,106C 302.026,107.729 301.026,108.895 299.5,109.5C 300.768,105.233 303.435,102.233 307.5,100.5 Z"/></g>
<g><path style="opacity:1" fill="#d3385f" d="M 83.5,67.5 C 84.8333,67.5 86.1667,67.5 87.5,67.5C 86.2225,68.7495 85.2225,70.2495 84.5,72C 85.6853,73.353 87.0186,74.5197 88.5,75.5C 88.1667,76.5 87.5,77.1667 86.5,77.5C 86.1316,87.2395 85.1316,96.7395 83.5,106C 86.5275,107.357 89.5275,107.524 92.5,106.5C 85.8906,109.487 79.5573,108.654 73.5,104C 75.7843,102.637 75.951,101.137 74,99.5C 73.5004,92.8417 73.3337,86.175 73.5,79.5C 78.376,78.9183 78.0427,77.9183 72.5,76.5C 71.0035,80.3354 70.0035,80.3354 69.5,76.5C 72.2587,73.7873 75.592,72.1206 79.5,71.5C 80.5487,69.7844 81.882,68.4511 83.5,67.5 Z"/></g>
<g><path style="opacity:0.129" fill="#373536" d="M 440.5,71.5 C 446.645,70.5098 452.978,70.1765 459.5,70.5C 459.831,101.005 459.498,131.338 458.5,161.5C 458.5,131.5 458.5,101.5 458.5,71.5C 452.833,71.5 447.167,71.5 441.5,71.5C 441.167,71.5 440.833,71.5 440.5,71.5 Z"/></g>
<g><path style="opacity:1" fill="#a8a7a7" d="M 598.5,108.5 C 602.388,107.939 606.388,107.606 610.5,107.5C 610.389,109.109 610.722,110.775 611.5,112.5C 607.708,109.57 603.375,108.237 598.5,108.5 Z"/></g>
<g><path style="opacity:0.365" fill="#6a6a6a" d="M 626.5,106.5 C 627.906,106.973 628.573,107.973 628.5,109.5C 627.094,109.027 626.427,108.027 626.5,106.5 Z"/></g>
<g><path style="opacity:0.32" fill="#63293a" d="M 57.5,87.5 C 55.7579,94.6836 55.0912,102.017 55.5,109.5C 68.1667,109.5 80.8333,109.5 93.5,109.5C 80.6732,110.66 67.6732,110.827 54.5,110C 52.6338,102.043 53.6338,94.5435 57.5,87.5 Z"/></g>
<g><path style="opacity:0.653" fill="#767576" d="M 470.5,94.5 C 476.471,94.2159 482.471,94.5492 488.5,95.5C 488.5,117.833 488.5,140.167 488.5,162.5C 482.242,162.81 476.076,162.476 470,161.5C 469.178,139.094 469.345,116.761 470.5,94.5 Z"/></g>
<g><path style="opacity:1" fill="#e9eae9" d="M 471.5,96.5 C 476.833,96.5 482.167,96.5 487.5,96.5C 487.5,118.167 487.5,139.833 487.5,161.5C 482.167,161.5 476.833,161.5 471.5,161.5C 471.5,139.833 471.5,118.167 471.5,96.5 Z"/></g>
<g><path style="opacity:0.816" fill="#9b9a9b" d="M 554.5,100.5 C 558.067,103.633 560.067,107.633 560.5,112.5C 560.5,112.833 560.5,113.167 560.5,113.5C 558.98,111.11 557.98,108.443 557.5,105.5C 556.448,105.649 555.448,105.483 554.5,105C 555.413,103.586 555.413,102.086 554.5,100.5 Z"/></g>
<g><path style="opacity:0.043" fill="#504f4f" d="M 597.5,108.5 C 596.486,109.674 595.153,110.34 593.5,110.5C 594.287,108.896 595.62,108.229 597.5,108.5 Z"/></g>
<g><path style="opacity:0.675" fill="#736e6f" d="M 334.5,110.5 C 336.5,110.5 337.5,111.5 337.5,113.5C 336.167,112.833 335.167,111.833 334.5,110.5 Z"/></g>
<g><path style="opacity:1" fill="#e8434f" d="M 125.5,69.5 C 126.492,69.3284 127.158,69.6618 127.5,70.5C 121.838,69.9171 120.171,71.9171 122.5,76.5C 121.478,77.354 120.645,78.354 120,79.5C 119.016,87.6369 119.516,95.6369 121.5,103.5C 120.077,106.275 119.411,109.275 119.5,112.5C 122.973,113.766 126.14,115.766 129,118.5C 129.333,118.167 129.667,117.833 130,117.5C 131.947,119.063 133.114,121.063 133.5,123.5C 132.582,125.82 131.248,127.987 129.5,130C 130.179,133.714 131.179,137.381 132.5,141C 132.406,143.954 131.906,144.121 131,141.5C 130.333,164.5 130.333,187.5 131,210.5C 132.023,211.6 132.523,212.933 132.5,214.5C 131.523,215.977 130.856,217.81 130.5,220C 130.603,221.561 130.937,223.061 131.5,224.5C 130.329,226.169 128.996,227.669 127.5,229C 127.833,229.5 128.167,230 128.5,230.5C 130.003,229.948 131.669,229.948 133.5,230.5C 129.445,233.075 125.112,235.075 120.5,236.5C 118.842,235.819 117.175,234.985 115.5,234C 117.228,232.274 119.228,230.941 121.5,230C 121.043,229.586 120.709,229.086 120.5,228.5C 122.078,227.702 123.744,227.202 125.5,227C 123.5,226.167 121.5,225.333 119.5,224.5C 120.628,223.738 121.795,223.071 123,222.5C 123.167,220.167 123.333,217.833 123.5,215.5C 122.355,210.295 121.688,204.962 121.5,199.5C 123.434,181.324 124.267,162.991 124,144.5C 123.308,143.975 122.808,143.308 122.5,142.5C 123.606,138.223 123.772,133.89 123,129.5C 122.167,128.667 121.333,127.833 120.5,127C 123.577,125.426 125.243,122.926 125.5,119.5C 122.365,119.452 120.698,117.785 120.5,114.5C 118.684,113.185 117.017,111.685 115.5,110C 115.822,105.277 115.822,100.444 115.5,95.5C 114.325,95.719 113.325,95.3857 112.5,94.5C 111.23,92.4523 110.897,90.4523 111.5,88.5C 110.726,87.2888 109.893,87.2888 109,88.5C 108.517,87.552 108.351,86.552 108.5,85.5C 109.822,85.67 110.989,85.3366 112,84.5C 113.416,81.3465 113.25,78.5132 111.5,76C 113.651,75.8089 115.651,74.6422 117.5,72.5C 115.5,71.5 113.5,70.5 111.5,69.5C 116.167,68.3486 120.834,68.3486 125.5,69.5 Z"/></g>
<g><path style="opacity:0.176" fill="#612229" d="M 218.5,112.5 C 212.974,112.179 207.64,112.512 202.5,113.5C 201.5,113.5 200.5,113.5 199.5,113.5C 197.833,113.5 196.167,113.5 194.5,113.5C 202.445,111.444 210.445,111.111 218.5,112.5 Z"/></g>
<g><path style="opacity:0.231" fill="#4e4c4e" d="M 299.5,109.5 C 299.573,111.027 298.906,112.027 297.5,112.5C 297.427,110.973 298.094,109.973 299.5,109.5 Z"/></g>
<g><path style="opacity:0.4" fill="#676667" d="M 536.5,110.5 C 538.027,110.427 539.027,111.094 539.5,112.5C 537.973,112.573 536.973,111.906 536.5,110.5 Z"/></g>
<g><path style="opacity:1" fill="#888586" d="M 406.5,111.5 C 409.484,111.787 410.817,113.454 410.5,116.5C 408.937,115.055 407.604,113.389 406.5,111.5 Z"/></g>
<g><path style="opacity:1" fill="#a34247" d="M 202.5,113.5 C 207.64,112.512 212.974,112.179 218.5,112.5C 229.333,112.661 238.667,116.327 246.5,123.5C 245.833,123.5 245.167,123.5 244.5,123.5C 240.742,121.065 236.742,118.898 232.5,117C 228.297,115.431 223.964,114.598 219.5,114.5C 218.833,114.5 218.167,114.5 217.5,114.5C 212.695,113.513 207.695,113.179 202.5,113.5 Z"/></g>
<g><path style="opacity:0.773" fill="#878586" d="M 628.5,109.5 C 630.585,111.684 631.585,114.351 631.5,117.5C 629.415,115.316 628.415,112.649 628.5,109.5 Z"/></g>
<g><path style="opacity:1" fill="#823540" d="M 109.5,94.5 C 110.816,97.0866 111.483,100.087 111.5,103.5C 111.461,106.917 111.127,110.25 110.5,113.5C 106.98,117.004 102.647,118.337 97.5,117.5C 106.77,116.891 111.103,111.891 110.5,102.5C 110.449,99.7471 110.116,97.0805 109.5,94.5 Z"/></g>
<g><path style="opacity:1" fill="#da3b5a" d="M 110.5,113.5 C 111.965,116.264 113.298,119.097 114.5,122C 114.388,125.4 112.722,127.567 109.5,128.5C 115.221,129.542 117.055,133.209 115,139.5C 114.167,140.333 113.333,141.167 112.5,142C 114.317,148.22 115.317,154.72 115.5,161.5C 115.167,162.833 114.833,164.167 114.5,165.5C 113.914,165.291 113.414,164.957 113,164.5C 112.578,166.426 111.411,167.426 109.5,167.5C 111.168,165.521 111.834,163.188 111.5,160.5C 112.117,160.389 112.617,160.056 113,159.5C 113.812,155.311 113.645,151.311 112.5,147.5C 112.446,145.368 111.446,144.035 109.5,143.5C 108.653,142.034 107.32,141.2 105.5,141C 101.472,140.608 97.4724,140.108 93.5,139.5C 93.5,132.833 93.5,126.167 93.5,119.5C 95.099,119.768 96.4324,119.434 97.5,118.5C 97.5,118.167 97.5,117.833 97.5,117.5C 102.647,118.337 106.98,117.004 110.5,113.5 Z"/></g>
<g><path style="opacity:1" fill="#883146" d="M 194.5,113.5 C 191.686,115.07 188.686,116.403 185.5,117.5C 184.833,117.5 184.167,117.5 183.5,117.5C 186.66,115 190.327,113.667 194.5,113.5 Z"/></g>
<g><path style="opacity:1" fill="#dd3c5a" d="M 199.5,113.5 C 200.5,113.5 201.5,113.5 202.5,113.5C 207.695,113.179 212.695,113.513 217.5,114.5C 211.939,113.802 206.773,114.802 202,117.5C 201.316,118.784 201.483,119.951 202.5,121C 198.735,122.377 199.068,123.377 203.5,124C 199.399,126.504 199.566,127.338 204,126.5C 204.273,128.329 205.107,129.829 206.5,131C 205.01,131.745 204.01,132.912 203.5,134.5C 203.747,135.713 204.414,136.38 205.5,136.5C 204.4,137.605 203.733,138.938 203.5,140.5C 202.833,140.833 202.167,141.167 201.5,141.5C 200.347,147.319 200.181,153.319 201,159.5C 201.833,160.333 202.667,161.167 203.5,162C 207.887,162.706 212.22,162.54 216.5,161.5C 216.389,162.117 216.056,162.617 215.5,163C 211.459,163.173 207.459,163.673 203.5,164.5C 206.456,167.589 205.789,169.256 201.5,169.5C 201.472,171.582 202.139,173.416 203.5,175C 203,175.5 202.5,176 202,176.5C 201.333,182.5 201.333,188.5 202,194.5C 202.833,193.5 203.667,192.5 204.5,191.5C 206.731,193.6 209.064,193.933 211.5,192.5C 211.56,191.957 211.893,191.624 212.5,191.5C 213.386,192.325 213.719,193.325 213.5,194.5C 210.5,194.5 207.5,194.5 204.5,194.5C 204.567,195.959 204.234,197.292 203.5,198.5C 200.09,198.616 198.756,196.95 199.5,193.5C 197.339,193.826 195.506,194.826 194,196.5C 193.505,194.527 193.338,192.527 193.5,190.5C 194.833,190.5 196.167,190.5 197.5,190.5C 197.383,186.751 196.716,183.084 195.5,179.5C 195.59,177.772 195.923,176.106 196.5,174.5C 194.955,173.548 193.288,173.215 191.5,173.5C 191.5,172.5 191.5,171.5 191.5,170.5C 193.895,171.363 196.229,171.363 198.5,170.5C 196.663,169.162 194.997,167.662 193.5,166C 194.032,163.98 195.365,163.147 197.5,163.5C 197.5,162.167 197.5,160.833 197.5,159.5C 195.516,159.383 193.85,160.05 192.5,161.5C 192.167,161.167 191.833,160.833 191.5,160.5C 192.863,159.107 193.696,157.441 194,155.5C 194.333,156.5 194.667,157.5 195,158.5C 198.057,153.832 198.224,148.999 195.5,144C 196.428,143.612 197.095,142.945 197.5,142C 196.783,140.469 195.783,139.136 194.5,138C 196.001,134.66 195.668,131.493 193.5,128.5C 194.01,126.912 195.01,125.745 196.5,125C 195.5,124.167 194.5,123.333 193.5,122.5C 195.475,121.251 195.809,119.751 194.5,118C 196.346,116.97 198.013,115.804 199.5,114.5C 199.5,114.167 199.5,113.833 199.5,113.5 Z"/></g>
<g><path style="opacity:0.254" fill="#505050" d="M 502.5,95.5 C 502.5,95.8333 502.5,96.1667 502.5,96.5C 500.511,117.808 499.844,139.474 500.5,161.5C 506.167,161.5 511.833,161.5 517.5,161.5C 511.69,162.49 505.69,162.823 499.5,162.5C 499.333,140.164 499.5,117.831 500,95.5C 500.977,94.2264 501.811,94.2264 502.5,95.5 Z"/></g>
<g><path style="opacity:0.373" fill="#5c5b5b" d="M 589.5,114.5 C 589.598,116.553 588.931,118.22 587.5,119.5C 587.402,117.447 588.069,115.78 589.5,114.5 Z"/></g>
<g><path style="opacity:0.604" fill="#7e7d7e" d="M 297.5,113.5 C 297.59,116.152 296.924,118.485 295.5,120.5C 295.41,117.848 296.076,115.515 297.5,113.5 Z"/></g>
<g><path style="opacity:0.514" fill="#6b6b6b" d="M 339.5,116.5 C 341.163,118.438 341.829,120.772 341.5,123.5C 340.388,121.401 339.721,119.067 339.5,116.5 Z"/></g>
<g><path style="opacity:0.621" fill="#848283" d="M 427.5,107.5 C 428.268,108.263 428.768,109.263 429,110.5C 430.236,127.508 430.403,144.508 429.5,161.5C 429.167,161.5 428.833,161.5 428.5,161.5C 428.779,143.472 428.446,125.472 427.5,107.5 Z"/></g>
<g><path style="opacity:0.269" fill="#585657" d="M 560.5,112.5 C 561.497,128.992 561.83,145.658 561.5,162.5C 555.167,162.5 548.833,162.5 542.5,162.5C 542.786,147.131 542.453,131.798 541.5,116.5C 542.117,116.611 542.617,116.944 543,117.5C 543.5,132.163 543.667,146.83 543.5,161.5C 549.167,161.5 554.833,161.5 560.5,161.5C 560.5,145.5 560.5,129.5 560.5,113.5C 560.5,113.167 560.5,112.833 560.5,112.5 Z"/></g>
<g><path style="opacity:0.994" fill="#a84159" d="M 97.5,118.5 C 96.4324,119.434 95.099,119.768 93.5,119.5C 93.5,126.167 93.5,132.833 93.5,139.5C 97.4724,140.108 101.472,140.608 105.5,141C 107.32,141.2 108.653,142.034 109.5,143.5C 103.764,142.201 98.097,141.201 92.5,140.5C 92.5,133.167 92.5,125.833 92.5,118.5C 94.1667,118.5 95.8333,118.5 97.5,118.5 Z"/></g>
<g><path style="opacity:1" fill="#e8464c" d="M 219.5,114.5 C 223.964,114.598 228.297,115.431 232.5,117C 236.742,118.898 240.742,121.065 244.5,123.5C 242.883,122.962 241.216,122.629 239.5,122.5C 239.5,123.5 239.5,124.5 239.5,125.5C 236.762,124.965 234.928,125.965 234,128.5C 234.026,142.904 233.193,157.237 231.5,171.5C 233.55,188.432 234.05,205.432 233,222.5C 232.667,220.167 232.333,217.833 232,215.5C 229.855,225.005 228.855,234.339 229,243.5C 230.145,242.316 231.312,242.316 232.5,243.5C 231.415,245.587 229.749,246.92 227.5,247.5C 225.62,247.771 224.287,247.104 223.5,245.5C 223.383,243.516 224.05,241.85 225.5,240.5C 223.929,237.607 223.263,234.441 223.5,231C 223.821,226.012 224.154,221.179 224.5,216.5C 222.126,210.585 220.792,204.418 220.5,198C 221.232,196.235 222.565,195.068 224.5,194.5C 223.585,183.817 223.585,172.817 224.5,161.5C 223.5,161.5 222.5,161.5 221.5,161.5C 221.5,159.833 221.5,158.167 221.5,156.5C 222.392,151.935 222.725,147.435 222.5,143C 221.782,141.013 220.782,139.179 219.5,137.5C 220.593,135.651 221.926,133.984 223.5,132.5C 222.345,131.05 220.845,130.05 219,129.5C 218.833,129.167 218.667,128.833 218.5,128.5C 223.694,127.17 223.694,125.67 218.5,124C 221.119,123.816 223.619,122.983 226,121.5C 226.667,120.167 226.667,118.833 226,117.5C 224.187,118.609 223.354,117.942 223.5,115.5C 221.901,115.768 220.568,115.434 219.5,114.5 Z"/></g>
<g><path style="opacity:0.453" fill="#817f80" d="M 613.5,115.5 C 614.924,117.515 615.59,119.848 615.5,122.5C 605.833,122.5 596.167,122.5 586.5,122.5C 586.263,121.209 586.596,120.209 587.5,119.5C 591.614,120.826 596.114,121.493 601,121.5C 605.5,121.167 610,120.833 614.5,120.5C 613.691,118.929 613.357,117.262 613.5,115.5 Z"/></g>
<g><path style="opacity:0.296" fill="#672535" d="M 97.5,117.5 C 97.5,117.833 97.5,118.167 97.5,118.5C 95.8333,118.5 94.1667,118.5 92.5,118.5C 92.5,125.833 92.5,133.167 92.5,140.5C 91.508,133.018 91.1746,125.352 91.5,117.5C 93.5,117.5 95.5,117.5 97.5,117.5 Z"/></g>
<g><path style="opacity:1" fill="#cb3663" d="M 183.5,117.5 C 184.167,117.5 184.833,117.5 185.5,117.5C 184.376,120.042 183.542,122.708 183,125.5C 182.667,125.167 182.333,124.833 182,124.5C 181.392,155.928 181.892,186.928 183.5,217.5C 181.901,217.232 180.568,217.566 179.5,218.5C 177.712,218.785 176.045,218.452 174.5,217.5C 175.246,216.264 175.579,214.93 175.5,213.5C 174.167,213.5 172.833,213.5 171.5,213.5C 171.5,212.167 171.5,210.833 171.5,209.5C 173.288,209.785 174.955,209.452 176.5,208.5C 175.022,204.801 174.022,200.968 173.5,197C 173.654,194.621 174.32,192.454 175.5,190.5C 173.137,189.02 171.971,187.02 172,184.5C 173.185,186.559 174.352,186.726 175.5,185C 173.029,181.845 173.029,178.679 175.5,175.5C 175.385,173.053 174.385,171.053 172.5,169.5C 172.433,167.599 172.767,165.766 173.5,164C 172.244,162.155 171.244,160.155 170.5,158C 171.189,155.946 172.189,154.946 173.5,155C 172.304,151.025 170.97,147.192 169.5,143.5C 171.226,143.815 172.893,143.981 174.5,144C 172.342,140.181 170.342,136.347 168.5,132.5C 172.803,132.265 174.47,129.931 173.5,125.5C 177.643,123.772 180.976,121.106 183.5,117.5 Z"/></g>
<g><path style="opacity:1" fill="#d1385f" d="M 194.5,113.5 C 196.167,113.5 197.833,113.5 199.5,113.5C 199.5,113.833 199.5,114.167 199.5,114.5C 192.802,115.026 189.136,118.693 188.5,125.5C 188.167,133.833 187.833,142.167 187.5,150.5C 187.287,161.919 187.954,173.252 189.5,184.5C 188.726,185.711 187.893,185.711 187,184.5C 185.562,187.278 185.562,189.944 187,192.5C 187.333,192.167 187.667,191.833 188,191.5C 188.169,196.828 188.002,202.162 187.5,207.5C 188.675,207.281 189.675,207.614 190.5,208.5C 188.703,209.695 187.703,211.362 187.5,213.5C 188.978,213.238 190.311,213.571 191.5,214.5C 190.167,215.5 190.167,216.5 191.5,217.5C 193.743,218.474 196.076,218.808 198.5,218.5C 198.335,214.818 198.501,211.152 199,207.5C 199.278,206.584 199.778,205.918 200.5,205.5C 199.873,210.141 199.54,214.807 199.5,219.5C 195.167,219.5 190.833,219.5 186.5,219.5C 184.393,218.532 182.059,218.198 179.5,218.5C 180.568,217.566 181.901,217.232 183.5,217.5C 181.892,186.928 181.392,155.928 182,124.5C 182.333,124.833 182.667,125.167 183,125.5C 183.542,122.708 184.376,120.042 185.5,117.5C 188.686,116.403 191.686,115.07 194.5,113.5 Z"/></g>
<g><path style="opacity:0.024" fill="#202121" d="M 88.5,141.5 C 88.3337,134.825 88.5004,128.158 89,121.5C 90.1091,123.8 90.6091,126.3 90.5,129C 90.5141,133.411 89.8474,137.578 88.5,141.5 Z"/></g>
<g><path style="opacity:1" fill="#cc405e" d="M 86.5,119.5 C 86.5,124.167 86.5,128.833 86.5,133.5C 85.0413,133.567 83.7079,133.234 82.5,132.5C 82.3345,128.486 82.5012,124.486 83,120.5C 84.0113,119.663 85.1779,119.33 86.5,119.5 Z"/></g>
<g><path style="opacity:1" fill="#c14b48" d="M 143.5,79.5 C 146.786,82.4 148.786,86.0666 149.5,90.5C 150.774,97.1721 150.774,103.839 149.5,110.5C 149.245,113.016 148.411,115.35 147,117.5C 144.65,119.683 142.483,122.016 140.5,124.5C 143.686,128.016 146.02,132.016 147.5,136.5C 145.249,134.072 142.582,132.072 139.5,130.5C 138.933,128.018 138.266,125.684 137.5,123.5C 138.183,121.824 139.517,121.157 141.5,121.5C 140.995,117.837 142.495,115.503 146,114.5C 148.465,106.374 149.132,98.0408 148,89.5C 146.723,87.2528 145.223,85.2528 143.5,83.5C 143.5,82.1667 143.5,80.8333 143.5,79.5 Z"/></g>
<g><path style="opacity:0.652" fill="#9d9a9c" d="M 410.5,117.5 C 411.222,117.918 411.722,118.584 412,119.5C 412.5,133.163 412.667,146.829 412.5,160.5C 412.167,160.5 411.833,160.5 411.5,160.5C 411.725,146.145 411.391,131.812 410.5,117.5 Z"/></g>
<g><path style="opacity:1" fill="#d7395d" d="M 199.5,114.5 C 198.013,115.804 196.346,116.97 194.5,118C 195.809,119.751 195.475,121.251 193.5,122.5C 194.5,123.333 195.5,124.167 196.5,125C 195.01,125.745 194.01,126.912 193.5,128.5C 195.668,131.493 196.001,134.66 194.5,138C 195.783,139.136 196.783,140.469 197.5,142C 197.095,142.945 196.428,143.612 195.5,144C 198.224,148.999 198.057,153.832 195,158.5C 194.667,157.5 194.333,156.5 194,155.5C 193.696,157.441 192.863,159.107 191.5,160.5C 191.833,160.833 192.167,161.167 192.5,161.5C 193.85,160.05 195.516,159.383 197.5,159.5C 197.5,160.833 197.5,162.167 197.5,163.5C 195.365,163.147 194.032,163.98 193.5,166C 194.997,167.662 196.663,169.162 198.5,170.5C 196.229,171.363 193.895,171.363 191.5,170.5C 191.5,171.5 191.5,172.5 191.5,173.5C 193.288,173.215 194.955,173.548 196.5,174.5C 195.923,176.106 195.59,177.772 195.5,179.5C 196.716,183.084 197.383,186.751 197.5,190.5C 196.167,190.5 194.833,190.5 193.5,190.5C 193.338,192.527 193.505,194.527 194,196.5C 195.506,194.826 197.339,193.826 199.5,193.5C 198.756,196.95 200.09,198.616 203.5,198.5C 203.5,198.833 203.5,199.167 203.5,199.5C 203.204,201.403 202.537,203.07 201.5,204.5C 200.833,204.5 200.5,204.833 200.5,205.5C 199.778,205.918 199.278,206.584 199,207.5C 198.501,211.152 198.335,214.818 198.5,218.5C 196.076,218.808 193.743,218.474 191.5,217.5C 190.167,216.5 190.167,215.5 191.5,214.5C 190.311,213.571 188.978,213.238 187.5,213.5C 187.703,211.362 188.703,209.695 190.5,208.5C 189.675,207.614 188.675,207.281 187.5,207.5C 188.002,202.162 188.169,196.828 188,191.5C 187.667,191.833 187.333,192.167 187,192.5C 185.562,189.944 185.562,187.278 187,184.5C 187.893,185.711 188.726,185.711 189.5,184.5C 187.954,173.252 187.287,161.919 187.5,150.5C 187.833,142.167 188.167,133.833 188.5,125.5C 189.136,118.693 192.802,115.026 199.5,114.5 Z"/></g>
<g><path style="opacity:0.667" fill="#9b999a" d="M 572.5,111.5 C 570.289,122.099 569.955,132.766 571.5,143.5C 569.96,138.935 569.293,134.102 569.5,129C 569.058,122.78 570.058,116.947 572.5,111.5 Z"/></g>
<g><path style="opacity:0.447" fill="#5c2730" d="M 79.5,124.5 C 78.2921,123.766 76.9587,123.433 75.5,123.5C 75.5,128.833 75.5,134.167 75.5,139.5C 74.8333,138.833 74.1667,138.167 73.5,137.5C 73.8683,133.878 73.8683,130.378 73.5,127C 74.2266,125.601 74.7266,124.101 75,122.5C 77.501,120.944 79.001,121.611 79.5,124.5 Z"/></g>
<g><path style="opacity:0.661" fill="#6a232f" d="M 86.5,119.5 C 85.1779,119.33 84.0113,119.663 83,120.5C 82.5012,124.486 82.3345,128.486 82.5,132.5C 82.5,134.833 82.5,137.167 82.5,139.5C 82.1667,139.5 81.8333,139.5 81.5,139.5C 81.8693,137.007 81.2027,136.34 79.5,137.5C 79.5,134.167 79.5,130.833 79.5,127.5C 80.3091,129.292 80.8091,131.292 81,133.5C 81.4339,129.452 81.4339,125.452 81,121.5C 82.1729,118.59 84.0062,117.923 86.5,119.5 Z"/></g>
<g><path style="opacity:1" fill="#933253" d="M 183.5,117.5 C 180.976,121.106 177.643,123.772 173.5,125.5C 171.025,126.687 170.025,128.687 170.5,131.5C 169.5,131.5 168.5,131.5 167.5,131.5C 170.756,124.527 176.089,119.86 183.5,117.5 Z"/></g>
<g><path style="opacity:1" fill="#b14942" d="M 246.5,123.5 C 250.73,126.953 253.73,131.287 255.5,136.5C 253.57,135.237 251.903,133.57 250.5,131.5C 249.552,128.577 248.219,125.911 246.5,123.5 Z"/></g>
<g><path style="opacity:0.461" fill="#6a2938" d="M 72.5,139.5 C 72.1667,139.5 71.8333,139.5 71.5,139.5C 71.8256,135.116 71.4922,130.783 70.5,126.5C 69.914,126.709 69.414,127.043 69,127.5C 68.5012,131.486 68.3345,135.486 68.5,139.5C 68.1667,139.5 67.8333,139.5 67.5,139.5C 67.3342,134.821 67.5008,130.155 68,125.5C 69.3333,124.167 70.6667,124.167 72,125.5C 72.4992,130.155 72.6658,134.821 72.5,139.5 Z"/></g>
<g><path style="opacity:0.255" fill="#5d5a5c" d="M 631.5,118.5 C 632.193,122.565 632.86,126.732 633.5,131C 633.043,131.414 632.709,131.914 632.5,132.5C 617.515,133.499 602.515,133.833 587.5,133.5C 587.5,134.5 587.5,135.5 587.5,136.5C 586.566,135.432 586.232,134.099 586.5,132.5C 601.5,132.5 616.5,132.5 631.5,132.5C 631.5,127.833 631.5,123.167 631.5,118.5 Z"/></g>
<g><path style="opacity:1" fill="#c64556" d="M 79.5,124.5 C 79.5,125.5 79.5,126.5 79.5,127.5C 79.5,130.833 79.5,134.167 79.5,137.5C 79.5,137.833 79.5,138.167 79.5,138.5C 78.4617,140.519 77.1284,140.853 75.5,139.5C 75.5,134.167 75.5,128.833 75.5,123.5C 76.9587,123.433 78.2921,123.766 79.5,124.5 Z"/></g>
<g><path style="opacity:1" fill="#c13567" d="M 173.5,125.5 C 174.47,129.931 172.803,132.265 168.5,132.5C 170.342,136.347 172.342,140.181 174.5,144C 172.893,143.981 171.226,143.815 169.5,143.5C 170.97,147.192 172.304,151.025 173.5,155C 172.189,154.946 171.189,155.946 170.5,158C 171.244,160.155 172.244,162.155 173.5,164C 172.767,165.766 172.433,167.599 172.5,169.5C 169.426,166.433 166.759,163.1 164.5,159.5C 164.5,159.167 164.5,158.833 164.5,158.5C 164.5,157.167 164.5,155.833 164.5,154.5C 164.128,146.612 165.128,138.945 167.5,131.5C 168.5,131.5 169.5,131.5 170.5,131.5C 170.025,128.687 171.025,126.687 173.5,125.5 Z"/></g>
<g><path style="opacity:0.067" fill="#323132" d="M 388.5,116.5 C 387.864,131.628 387.197,146.628 386.5,161.5C 386.333,146.83 386.5,132.163 387,117.5C 387.383,116.944 387.883,116.611 388.5,116.5 Z"/></g>
<g><path style="opacity:0.706" fill="#923e51" d="M 60.5,132.5 C 60.8186,134.75 60.3186,136.75 59,138.5C 57.6253,136.063 57.1253,133.397 57.5,130.5C 59.3318,129.282 60.3318,129.949 60.5,132.5 Z"/></g>
<g><path style="opacity:0.902" fill="#c44a59" d="M 71.5,139.5 C 70.5,140.833 69.5,140.833 68.5,139.5C 68.3345,135.486 68.5012,131.486 69,127.5C 69.414,127.043 69.914,126.709 70.5,126.5C 71.4922,130.783 71.8256,135.116 71.5,139.5 Z"/></g>
<g><path style="opacity:1" fill="#ad4448" d="M 86.5,119.5 C 87.654,125.987 87.8206,132.654 87,139.5C 85.7741,141.548 84.2741,141.881 82.5,140.5C 82.5,140.167 82.5,139.833 82.5,139.5C 82.5,137.167 82.5,134.833 82.5,132.5C 83.7079,133.234 85.0413,133.567 86.5,133.5C 86.5,128.833 86.5,124.167 86.5,119.5 Z"/></g>
<g><path style="opacity:0.902" fill="#c54c58" d="M 65.5,128.5 C 65.5,128.833 65.5,129.167 65.5,129.5C 65.5,132.833 65.5,136.167 65.5,139.5C 64.2132,138.129 63.5465,136.295 63.5,134C 63.5465,131.705 64.2132,129.871 65.5,128.5 Z"/></g>
<g><path style="opacity:0.62" fill="#696768" d="M 341.5,134.5 C 341.741,136.898 341.074,138.898 339.5,140.5C 339.595,138.214 340.262,136.214 341.5,134.5 Z"/></g>
<g><path style="opacity:0.702" fill="#4f292b" d="M 65.5,128.5 C 64.2132,129.871 63.5465,131.705 63.5,134C 63.5465,136.295 64.2132,138.129 65.5,139.5C 65.5,140.167 65.5,140.833 65.5,141.5C 62.498,142.928 59.6647,142.595 57,140.5C 56.1925,136.973 56.3592,133.64 57.5,130.5C 57.1253,133.397 57.6253,136.063 59,138.5C 60.3186,136.75 60.8186,134.75 60.5,132.5C 61.9313,131.22 62.5979,129.553 62.5,127.5C 63.791,127.263 64.791,127.596 65.5,128.5 Z"/></g>
<g><path style="opacity:1" fill="#9f3a45" d="M 205.5,136.5 C 209.767,136.203 213.934,136.536 218,137.5C 219.693,142.928 219.86,148.261 218.5,153.5C 219.592,147.348 217.925,142.182 213.5,138C 209.579,136.861 206.246,137.695 203.5,140.5C 203.733,138.938 204.4,137.605 205.5,136.5 Z"/></g>
<g><path style="opacity:0.722" fill="#747273" d="M 313.5,134.5 C 314.458,136.302 315.125,138.302 315.5,140.5C 313.72,139.01 313.054,137.01 313.5,134.5 Z"/></g>
<g><path style="opacity:1" fill="#e84949" d="M 133.5,123.5 C 133.369,124.376 133.702,125.043 134.5,125.5C 135.739,125.058 136.739,124.391 137.5,123.5C 138.266,125.684 138.933,128.018 139.5,130.5C 142.582,132.072 145.249,134.072 147.5,136.5C 148.674,137.514 149.34,138.847 149.5,140.5C 151.382,149.544 152.382,158.711 152.5,168C 152.206,175.839 151.873,183.672 151.5,191.5C 151.5,194.167 151.5,196.833 151.5,199.5C 148.946,202.59 147.946,206.256 148.5,210.5C 144.798,213.581 142.798,217.581 142.5,222.5C 140.958,223.301 139.292,223.634 137.5,223.5C 137.813,226.837 136.48,229.171 133.5,230.5C 131.669,229.948 130.003,229.948 128.5,230.5C 128.167,230 127.833,229.5 127.5,229C 128.996,227.669 130.329,226.169 131.5,224.5C 130.937,223.061 130.603,221.561 130.5,220C 130.856,217.81 131.523,215.977 132.5,214.5C 132.523,212.933 132.023,211.6 131,210.5C 130.333,187.5 130.333,164.5 131,141.5C 131.906,144.121 132.406,143.954 132.5,141C 131.179,137.381 130.179,133.714 129.5,130C 131.248,127.987 132.582,125.82 133.5,123.5 Z"/></g>
<g><path style="opacity:0.216" fill="#494748" d="M 615.5,141.5 C 620.975,140.511 626.642,140.178 632.5,140.5C 632.737,141.791 632.404,142.791 631.5,143.5C 626.604,141.554 621.271,140.887 615.5,141.5 Z"/></g>
<g><path style="opacity:0.106" fill="#2b1d1d" d="M 65.5,129.5 C 66.0112,134.082 66.6779,137.416 67.5,139.5C 67.8333,139.5 68.1667,139.5 68.5,139.5C 69.5,140.833 70.5,140.833 71.5,139.5C 71.8333,139.5 72.1667,139.5 72.5,139.5C 73.4202,140.067 73.7535,139.401 73.5,137.5C 74.1667,138.167 74.8333,138.833 75.5,139.5C 77.1284,140.853 78.4617,140.519 79.5,138.5C 80.1667,138.833 80.8333,139.167 81.5,139.5C 81.8333,139.5 82.1667,139.5 82.5,139.5C 82.5,139.833 82.5,140.167 82.5,140.5C 81.7046,145.468 79.8712,145.801 77,141.5C 75.7365,143.607 73.9032,144.607 71.5,144.5C 71.5,143.5 71.5,142.5 71.5,141.5C 69.5165,141.383 67.8498,142.05 66.5,143.5C 65.7025,143.043 65.3691,142.376 65.5,141.5C 65.5,140.833 65.5,140.167 65.5,139.5C 65.5,136.167 65.5,132.833 65.5,129.5 Z"/></g>
<g><path style="opacity:0.008" fill="#000000" d="M 88.5,141.5 C 87.8333,142.167 87.8333,142.167 88.5,141.5 Z"/></g>
<g><path style="opacity:0.337" fill="#5e5c5d" d="M 615.5,141.5 C 615.573,143.027 614.906,144.027 613.5,144.5C 613.427,142.973 614.094,141.973 615.5,141.5 Z"/></g>
<g><path style="opacity:0.998" fill="#99385d" d="M 167.5,131.5 C 165.128,138.945 164.128,146.612 164.5,154.5C 163.515,150.366 163.182,146.032 163.5,141.5C 163.486,137.525 164.819,134.192 167.5,131.5 Z"/></g>
<g><path style="opacity:0.276" fill="#4b2330" d="M 90.5,147.5 C 80.6522,147.173 70.9856,147.506 61.5,148.5C 58.5,148.5 55.5,148.5 52.5,148.5C 53.2625,147.732 54.2625,147.232 55.5,147C 62.3449,146.645 69.1783,146.145 76,145.5C 81.0187,145.88 85.8521,146.546 90.5,147.5 Z"/></g>
<g><path style="opacity:0.078" fill="#5f2430" d="M 203.5,140.5 C 202.686,145.119 202.353,149.786 202.5,154.5C 201.515,150.366 201.182,146.032 201.5,141.5C 202.167,141.167 202.833,140.833 203.5,140.5 Z"/></g>
<g><path style="opacity:0.784" fill="#8b3f34" d="M 255.5,136.5 C 259.5,144.167 259.5,151.833 255.5,159.5C 256.669,151.821 256.669,144.154 255.5,136.5 Z"/></g>
<g><path style="opacity:0.224" fill="#595858" d="M 571.5,143.5 C 572.674,144.514 573.34,145.847 573.5,147.5C 571.896,146.713 571.229,145.38 571.5,143.5 Z"/></g>
<g><path style="opacity:0.235" fill="#511f33" d="M 163.5,141.5 C 163.182,146.032 163.515,150.366 164.5,154.5C 164.5,155.833 164.5,157.167 164.5,158.5C 162.981,155.474 162.315,152.141 162.5,148.5C 162.503,145.975 162.837,143.641 163.5,141.5 Z"/></g>
<g><path style="opacity:1" fill="#a19fa0" d="M 335.5,146.5 C 335.196,147.15 334.863,147.817 334.5,148.5C 332.667,148.833 330.833,149.167 329,149.5C 326.134,149.7 323.634,149.033 321.5,147.5C 326.286,148.925 330.952,148.592 335.5,146.5 Z"/></g>
<g><path style="opacity:0.624" fill="#868385" d="M 593.5,146.5 C 595.574,147.514 597.574,148.514 599.5,149.5C 596.607,149.969 594.607,148.969 593.5,146.5 Z"/></g>
<g><path style="opacity:0.753" fill="#737071" d="M 609.5,147.5 C 609.389,148.117 609.056,148.617 608.5,149C 606.527,149.495 604.527,149.662 602.5,149.5C 604.657,148.593 606.99,147.927 609.5,147.5 Z"/></g>
<g><path style="opacity:1" fill="#c03367" d="M 90.5,147.5 C 91.4219,151.995 92.0886,156.662 92.5,161.5C 90.6552,157.833 89.4885,153.833 89,149.5C 87.6439,148.62 86.1439,148.286 84.5,148.5C 80.0848,148.305 75.7514,148.805 71.5,150C 73.5124,153.006 75.8458,155.839 78.5,158.5C 77.0627,160.021 76.396,161.855 76.5,164C 78.723,169.495 77.723,174.161 73.5,178C 75.9757,179.309 77.9757,181.142 79.5,183.5C 78.1667,183.833 76.8333,184.167 75.5,184.5C 76.3482,186.409 76.6816,188.409 76.5,190.5C 78.5273,190.338 80.5273,190.505 82.5,191C 83.056,191.383 83.3893,191.883 83.5,192.5C 80.8333,192.167 78.1667,191.833 75.5,191.5C 74.5084,191.672 73.8417,191.338 73.5,190.5C 70.803,187.294 67.803,184.294 64.5,181.5C 68.5216,181.311 68.5216,179.977 64.5,177.5C 62.7028,180.096 61.3695,179.763 60.5,176.5C 60.9312,175.707 61.2645,174.873 61.5,174C 58.6001,170.61 58.9334,167.61 62.5,165C 61.9318,163.128 61.2651,161.295 60.5,159.5C 61.325,158.614 62.325,158.281 63.5,158.5C 63.5,157.5 63.5,156.5 63.5,155.5C 61.2495,155.819 59.2495,155.319 57.5,154C 59.9005,153.814 62.2338,153.314 64.5,152.5C 63.8284,150.84 62.8284,149.507 61.5,148.5C 70.9856,147.506 80.6522,147.173 90.5,147.5 Z"/></g>
<g><path style="opacity:0.055" fill="#5b1c24" d="M 109.5,143.5 C 111.446,144.035 112.446,145.368 112.5,147.5C 112.81,150.713 112.477,153.713 111.5,156.5C 111.946,151.929 111.28,147.596 109.5,143.5 Z"/></g>
<g><path style="opacity:1" fill="#ca3663" d="M 84.5,148.5 C 84.5,149.5 84.5,150.5 84.5,151.5C 82.712,151.215 81.0453,151.548 79.5,152.5C 80.7476,154.69 82.4143,155.023 84.5,153.5C 85.4656,155.396 85.7989,157.396 85.5,159.5C 84.5,159.5 83.5,159.5 82.5,159.5C 82.5,161.167 82.5,162.833 82.5,164.5C 83.5,164.5 84.5,164.5 85.5,164.5C 85.091,168.62 86.4243,171.954 89.5,174.5C 88.675,175.386 87.675,175.719 86.5,175.5C 86.334,180.844 86.5006,186.177 87,191.5C 88.5069,190.465 90.0069,190.632 91.5,192C 98.8258,192.5 106.159,192.666 113.5,192.5C 113.5,192.833 113.5,193.167 113.5,193.5C 103.418,193.807 93.4176,193.474 83.5,192.5C 83.3893,191.883 83.056,191.383 82.5,191C 80.5273,190.505 78.5273,190.338 76.5,190.5C 76.6816,188.409 76.3482,186.409 75.5,184.5C 76.8333,184.167 78.1667,183.833 79.5,183.5C 77.9757,181.142 75.9757,179.309 73.5,178C 77.723,174.161 78.723,169.495 76.5,164C 76.396,161.855 77.0627,160.021 78.5,158.5C 75.8458,155.839 73.5124,153.006 71.5,150C 75.7514,148.805 80.0848,148.305 84.5,148.5 Z"/></g>
<g><path style="opacity:1" fill="#b2326b" d="M 52.5,148.5 C 55.5,148.5 58.5,148.5 61.5,148.5C 62.8284,149.507 63.8284,150.84 64.5,152.5C 62.2338,153.314 59.9005,153.814 57.5,154C 59.2495,155.319 61.2495,155.819 63.5,155.5C 63.5,156.5 63.5,157.5 63.5,158.5C 62.325,158.281 61.325,158.614 60.5,159.5C 61.2651,161.295 61.9318,163.128 62.5,165C 58.9334,167.61 58.6001,170.61 61.5,174C 61.2645,174.873 60.9312,175.707 60.5,176.5C 61.3695,179.763 62.7028,180.096 64.5,177.5C 68.5216,179.977 68.5216,181.311 64.5,181.5C 67.803,184.294 70.803,187.294 73.5,190.5C 70.1511,189.831 67.4844,188.164 65.5,185.5C 64.4154,183.413 62.7488,182.08 60.5,181.5C 60.5,181.167 60.5,180.833 60.5,180.5C 58.4028,175.968 56.0694,171.635 53.5,167.5C 52.6803,161.203 52.347,154.869 52.5,148.5 Z"/></g>
<g><path style="opacity:0.765" fill="#a13e4b" d="M 112.5,147.5 C 113.645,151.311 113.812,155.311 113,159.5C 112.617,160.056 112.117,160.389 111.5,160.5C 111.5,159.167 111.5,157.833 111.5,156.5C 112.477,153.713 112.81,150.713 112.5,147.5 Z"/></g>
<g><path style="opacity:1" fill="#ac3c4f" d="M 201.5,141.5 C 201.182,146.032 201.515,150.366 202.5,154.5C 204.499,161.497 208.832,163.33 215.5,160C 216.609,158.124 217.609,156.291 218.5,154.5C 218.606,157.079 217.939,159.412 216.5,161.5C 212.22,162.54 207.887,162.706 203.5,162C 202.667,161.167 201.833,160.333 201,159.5C 200.181,153.319 200.347,147.319 201.5,141.5 Z"/></g>
<g><path style="opacity:0.333" fill="#5c5a5a" d="M 580.5,156.5 C 582.027,156.427 583.027,157.094 583.5,158.5C 581.973,158.573 580.973,157.906 580.5,156.5 Z"/></g>
<g><path style="opacity:0.235" fill="#535151" d="M 309.5,158.5 C 311.027,158.427 312.027,159.094 312.5,160.5C 310.973,160.573 309.973,159.906 309.5,158.5 Z"/></g>
<g><path style="opacity:0.204" fill="#521c36" d="M 52.5,148.5 C 52.347,154.869 52.6803,161.203 53.5,167.5C 51.9608,164.135 51.2942,160.469 51.5,156.5C 51.5025,153.645 51.8359,150.978 52.5,148.5 Z"/></g>
<g><path style="opacity:0.275" fill="#545253" d="M 341.5,160.5 C 339.898,162.074 337.898,162.741 335.5,162.5C 337.214,161.262 339.214,160.595 341.5,160.5 Z"/></g>
<g><path style="opacity:0.188" fill="#474545" d="M 368.5,160.5 C 368.833,160.5 369.167,160.5 369.5,160.5C 374.975,161.489 380.642,161.822 386.5,161.5C 380.681,162.653 374.681,162.819 368.5,162C 367.262,161.31 367.262,160.81 368.5,160.5 Z"/></g>
<g><path style="opacity:0.176" fill="#494546" d="M 411.5,160.5 C 411.833,160.5 412.167,160.5 412.5,160.5C 417.64,161.488 422.974,161.821 428.5,161.5C 428.833,161.5 429.167,161.5 429.5,161.5C 423.681,162.653 417.681,162.819 411.5,162C 410.262,161.31 410.262,160.81 411.5,160.5 Z"/></g>
<g><path style="opacity:0.525" fill="#7b7879" d="M 587.5,160.5 C 590.152,160.41 592.485,161.076 594.5,162.5C 591.848,162.59 589.515,161.924 587.5,160.5 Z"/></g>
<g><path style="opacity:0.051" fill="#504d4d" d="M 618.5,159.5 C 615.916,161.472 612.916,162.472 609.5,162.5C 612.215,160.928 615.215,159.928 618.5,159.5 Z"/></g>
<g><path style="opacity:0.804" fill="#a04340" d="M 149.5,140.5 C 151.109,143.906 152.276,147.573 153,151.5C 154.435,162.171 154.602,172.838 153.5,183.5C 152.833,186.167 152.167,188.833 151.5,191.5C 151.873,183.672 152.206,175.839 152.5,168C 152.382,158.711 151.382,149.544 149.5,140.5 Z"/></g>
<g><path style="opacity:1" fill="#e53f55" d="M 217.5,114.5 C 218.167,114.5 218.833,114.5 219.5,114.5C 220.568,115.434 221.901,115.768 223.5,115.5C 223.354,117.942 224.187,118.609 226,117.5C 226.667,118.833 226.667,120.167 226,121.5C 223.619,122.983 221.119,123.816 218.5,124C 223.694,125.67 223.694,127.17 218.5,128.5C 218.667,128.833 218.833,129.167 219,129.5C 220.845,130.05 222.345,131.05 223.5,132.5C 221.926,133.984 220.593,135.651 219.5,137.5C 220.782,139.179 221.782,141.013 222.5,143C 222.725,147.435 222.392,151.935 221.5,156.5C 219.801,158.728 218.467,161.228 217.5,164C 214.044,163.907 211.044,164.907 208.5,167C 211.417,167.662 212.75,169.495 212.5,172.5C 211.448,172.351 210.448,172.517 209.5,173C 210.716,179.057 210.716,185.39 209.5,192C 210.094,192.464 210.761,192.631 211.5,192.5C 209.064,193.933 206.731,193.6 204.5,191.5C 203.667,192.5 202.833,193.5 202,194.5C 201.333,188.5 201.333,182.5 202,176.5C 202.5,176 203,175.5 203.5,175C 202.139,173.416 201.472,171.582 201.5,169.5C 205.789,169.256 206.456,167.589 203.5,164.5C 207.459,163.673 211.459,163.173 215.5,163C 216.056,162.617 216.389,162.117 216.5,161.5C 217.939,159.412 218.606,157.079 218.5,154.5C 218.5,154.167 218.5,153.833 218.5,153.5C 219.86,148.261 219.693,142.928 218,137.5C 213.934,136.536 209.767,136.203 205.5,136.5C 204.414,136.38 203.747,135.713 203.5,134.5C 204.01,132.912 205.01,131.745 206.5,131C 205.107,129.829 204.273,128.329 204,126.5C 199.566,127.338 199.399,126.504 203.5,124C 199.068,123.377 198.735,122.377 202.5,121C 201.483,119.951 201.316,118.784 202,117.5C 206.773,114.802 211.939,113.802 217.5,114.5 Z"/></g>
<g><path style="opacity:1" fill="#9a3f3a" d="M 255.5,159.5 C 254.016,165.505 250.682,170.338 245.5,174C 250.014,176.016 253.347,179.183 255.5,183.5C 252.084,179.755 248.084,176.755 243.5,174.5C 244.309,172.929 244.643,171.262 244.5,169.5C 245.833,169.5 247.167,169.5 248.5,169.5C 248.351,168.448 248.517,167.448 249,166.5C 251.183,164.093 253.35,161.76 255.5,159.5 Z"/></g>
<g><path style="opacity:1" fill="#d3395d" d="M 84.5,148.5 C 86.1439,148.286 87.6439,148.62 89,149.5C 89.4885,153.833 90.6552,157.833 92.5,161.5C 92.3266,165.17 93.9933,167.67 97.5,169C 100.5,169.667 103.5,169.667 106.5,169C 107.056,168.617 107.389,168.117 107.5,167.5C 109.116,165.262 110.449,162.929 111.5,160.5C 111.834,163.188 111.168,165.521 109.5,167.5C 106.164,169.959 103.33,172.959 101,176.5C 100.501,181.489 100.334,186.489 100.5,191.5C 105.032,191.182 109.366,191.515 113.5,192.5C 106.159,192.666 98.8258,192.5 91.5,192C 90.0069,190.632 88.5069,190.465 87,191.5C 86.5006,186.177 86.334,180.844 86.5,175.5C 87.675,175.719 88.675,175.386 89.5,174.5C 86.4243,171.954 85.091,168.62 85.5,164.5C 84.5,164.5 83.5,164.5 82.5,164.5C 82.5,162.833 82.5,161.167 82.5,159.5C 83.5,159.5 84.5,159.5 85.5,159.5C 85.7989,157.396 85.4656,155.396 84.5,153.5C 82.4143,155.023 80.7476,154.69 79.5,152.5C 81.0453,151.548 82.712,151.215 84.5,151.5C 84.5,150.5 84.5,149.5 84.5,148.5 Z"/></g>
<g><path style="opacity:0.714" fill="#7a2938" d="M 92.5,161.5 C 95.8688,167.271 100.869,169.271 107.5,167.5C 107.389,168.117 107.056,168.617 106.5,169C 103.5,169.667 100.5,169.667 97.5,169C 93.9933,167.67 92.3266,165.17 92.5,161.5 Z"/></g>
<g><path style="opacity:1" fill="#e94c47" d="M 244.5,123.5 C 245.167,123.5 245.833,123.5 246.5,123.5C 248.219,125.911 249.552,128.577 250.5,131.5C 251.903,133.57 253.57,135.237 255.5,136.5C 256.669,144.154 256.669,151.821 255.5,159.5C 253.35,161.76 251.183,164.093 249,166.5C 248.517,167.448 248.351,168.448 248.5,169.5C 247.167,169.5 245.833,169.5 244.5,169.5C 244.643,171.262 244.309,172.929 243.5,174.5C 248.084,176.755 252.084,179.755 255.5,183.5C 256.167,185.5 256.833,187.5 257.5,189.5C 256.5,189.5 255.5,189.5 254.5,189.5C 254.5,187.833 254.5,186.167 254.5,184.5C 253.5,184.5 252.5,184.5 251.5,184.5C 251.915,182.052 250.915,180.719 248.5,180.5C 246.052,181.114 244.385,182.614 243.5,185C 244.833,186.667 246.167,188.333 247.5,190C 247.37,191.059 246.87,191.892 246,192.5C 245.759,197.705 245.259,202.872 244.5,208C 245.482,210.009 246.815,210.509 248.5,209.5C 248.833,210.333 249.167,211.167 249.5,212C 247.972,214.281 247.472,216.781 248,219.5C 248.986,220.171 250.153,220.171 251.5,219.5C 251.5,220.833 251.5,222.167 251.5,223.5C 249.712,223.215 248.045,223.548 246.5,224.5C 248.066,227.494 247.399,228.494 244.5,227.5C 243.692,227.808 243.025,228.308 242.5,229C 243.973,229.71 244.64,230.876 244.5,232.5C 242.473,232.338 240.473,232.505 238.5,233C 239.357,233.689 240.023,234.522 240.5,235.5C 237.684,236.64 236.018,238.64 235.5,241.5C 234.5,242.167 233.5,242.833 232.5,243.5C 231.312,242.316 230.145,242.316 229,243.5C 228.855,234.339 229.855,225.005 232,215.5C 232.333,217.833 232.667,220.167 233,222.5C 234.05,205.432 233.55,188.432 231.5,171.5C 233.193,157.237 234.026,142.904 234,128.5C 234.928,125.965 236.762,124.965 239.5,125.5C 239.5,124.5 239.5,123.5 239.5,122.5C 241.216,122.629 242.883,122.962 244.5,123.5 Z"/></g>
<g><path style="opacity:0.373" fill="#63253e" d="M 53.5,167.5 C 56.0694,171.635 58.4028,175.968 60.5,180.5C 56.8793,176.929 54.546,172.596 53.5,167.5 Z"/></g>
<g><path style="opacity:0.694" fill="#797878" d="M 318.5,176.5 C 315.5,176.5 312.5,176.5 309.5,176.5C 312.5,173.833 315.5,173.833 318.5,176.5 Z"/></g>
<g><path style="opacity:0.999" fill="#e8e8e8" d="M 452.5,176.5 C 457.833,176.5 463.167,176.5 468.5,176.5C 468.5,206.5 468.5,236.5 468.5,266.5C 462.833,266.5 457.167,266.5 451.5,266.5C 451.81,263.287 451.477,260.287 450.5,257.5C 449.778,257.082 449.278,256.416 449,255.5C 448.223,257.701 447.056,257.701 445.5,255.5C 446.032,253.259 447.365,251.759 449.5,251C 448.027,250.29 447.36,249.124 447.5,247.5C 449.975,246.313 450.975,244.313 450.5,241.5C 450.5,240.833 450.5,240.167 450.5,239.5C 451.648,235.019 451.815,230.352 451,225.5C 450.722,224.584 450.222,223.918 449.5,223.5C 449.107,220.07 449.773,216.904 451.5,214C 449.068,212.913 449.402,212.413 452.5,212.5C 452.5,200.5 452.5,188.5 452.5,176.5 Z"/></g>
<g><path style="opacity:1" fill="#dddcdc" d="M 309.5,176.5 C 312.5,176.5 315.5,176.5 318.5,176.5C 322.338,177.684 324.338,180.351 324.5,184.5C 324.1,187.741 322.767,190.407 320.5,192.5C 317.214,193.207 313.881,193.54 310.5,193.5C 308.251,192.92 306.585,191.587 305.5,189.5C 305.5,186.5 305.5,183.5 305.5,180.5C 305.833,178.167 307.167,176.833 309.5,176.5 Z"/></g>
<g><path style="opacity:0.396" fill="#531b3a" d="M 60.5,181.5 C 62.7488,182.08 64.4154,183.413 65.5,185.5C 63.2512,184.92 61.5846,183.587 60.5,181.5 Z"/></g>
<g><path style="opacity:0.761" fill="#7b7a7a" d="M 305.5,180.5 C 305.5,183.5 305.5,186.5 305.5,189.5C 302.983,186.461 302.983,183.461 305.5,180.5 Z"/></g>
<g><path style="opacity:1" fill="#e95241" d="M 257.5,189.5 C 259.006,193.435 259.672,197.601 259.5,202C 259.594,207.038 258.927,211.872 257.5,216.5C 255.988,218.317 253.988,219.317 251.5,219.5C 250.153,220.171 248.986,220.171 248,219.5C 247.472,216.781 247.972,214.281 249.5,212C 249.167,211.167 248.833,210.333 248.5,209.5C 246.815,210.509 245.482,210.009 244.5,208C 245.259,202.872 245.759,197.705 246,192.5C 246.87,191.892 247.37,191.059 247.5,190C 246.167,188.333 244.833,186.667 243.5,185C 244.385,182.614 246.052,181.114 248.5,180.5C 250.915,180.719 251.915,182.052 251.5,184.5C 252.5,184.5 253.5,184.5 254.5,184.5C 254.5,186.167 254.5,187.833 254.5,189.5C 255.5,189.5 256.5,189.5 257.5,189.5 Z"/></g>
<g><path style="opacity:0.118" fill="#3b3539" d="M 451.5,176.5 C 451.667,187.838 451.5,199.172 451,210.5C 450.283,209.956 449.783,209.289 449.5,208.5C 450.167,197.833 450.833,187.167 451.5,176.5 Z"/></g>
<g><path style="opacity:0.8" fill="#67253c" d="M 164.5,159.5 C 166.759,163.1 169.426,166.433 172.5,169.5C 174.385,171.053 175.385,173.053 175.5,175.5C 167.941,179.582 163.108,185.915 161,194.5C 159.915,202.741 160.748,210.741 163.5,218.5C 161.554,216.266 160.387,213.599 160,210.5C 156.844,194.937 161.677,182.77 174.5,174C 169.789,170.065 166.456,165.232 164.5,159.5 Z"/></g>
<g><path style="opacity:0.02" fill="#555354" d="M 320.5,192.5 C 318.883,193.972 316.883,194.639 314.5,194.5C 312.955,194.489 311.622,194.156 310.5,193.5C 313.881,193.54 317.214,193.207 320.5,192.5 Z"/></g>
<g><path style="opacity:0.384" fill="#6f2c23" d="M 153.5,183.5 C 153.745,189.084 153.078,194.417 151.5,199.5C 151.5,196.833 151.5,194.167 151.5,191.5C 152.167,188.833 152.833,186.167 153.5,183.5 Z"/></g>
<g><path style="opacity:0.482" fill="#8f2f3d" d="M 213.5,194.5 C 216.702,194.537 218.368,196.203 218.5,199.5C 213.5,194.167 208.5,194.167 203.5,199.5C 203.5,199.167 203.5,198.833 203.5,198.5C 204.234,197.292 204.567,195.959 204.5,194.5C 207.5,194.5 210.5,194.5 213.5,194.5 Z"/></g>
<g><path style="opacity:0.007" fill="#1e1115" d="M 86.5,194.5 C 90.8333,194.5 95.1667,194.5 99.5,194.5C 97.7809,195.022 96.4475,196.022 95.5,197.5C 93.7085,197.634 92.0418,197.301 90.5,196.5C 89.1667,195.833 87.8333,195.167 86.5,194.5 Z"/></g>
<g><path style="opacity:1" fill="#a83761" d="M 95.5,198.5 C 95.5,199.167 95.5,199.833 95.5,200.5C 95.3359,203.187 95.5026,205.854 96,208.5C 96.3826,209.056 96.8826,209.389 97.5,209.5C 98.1098,210.391 98.4431,211.391 98.5,212.5C 97.2058,211.71 96.0391,210.71 95,209.5C 94.5017,206.183 94.335,202.85 94.5,199.5C 89.5,199.5 84.5,199.5 79.5,199.5C 75.1539,199.334 70.8206,199.501 66.5,200C 65.3595,200.741 65.3595,201.575 66.5,202.5C 65.7579,203.287 64.9246,203.953 64,204.5C 63.4283,201.293 61.595,199.626 58.5,199.5C 58.0631,208.279 59.7298,216.612 63.5,224.5C 60.4598,221.086 58.4598,217.086 57.5,212.5C 56.8734,207.859 56.5401,203.193 56.5,198.5C 69.5,198.5 82.5,198.5 95.5,198.5 Z"/></g>
<g><path style="opacity:1" fill="#c13367" d="M 79.5,199.5 C 78.2858,200.626 77.2858,201.959 76.5,203.5C 77.8129,205.392 77.6462,207.059 76,208.5C 75.5008,213.155 75.3342,217.821 75.5,222.5C 80.6928,223.364 80.6928,224.697 75.5,226.5C 77.4365,228.478 79.7698,229.811 82.5,230.5C 81.3554,231.891 81.3554,233.224 82.5,234.5C 84.3964,235.275 86.063,236.275 87.5,237.5C 86.1667,237.5 84.8333,237.5 83.5,237.5C 80.6957,234.208 77.1957,231.875 73,230.5C 72.6666,228.953 73.1666,227.62 74.5,226.5C 71.9659,225.223 69.4659,225.223 67,226.5C 66.1841,225.177 65.0174,224.511 63.5,224.5C 59.7298,216.612 58.0631,208.279 58.5,199.5C 61.595,199.626 63.4283,201.293 64,204.5C 64.9246,203.953 65.7579,203.287 66.5,202.5C 65.3595,201.575 65.3595,200.741 66.5,200C 70.8206,199.501 75.1539,199.334 79.5,199.5 Z"/></g>
<g><path style="opacity:0.604" fill="#767475" d="M 575.5,200.5 C 578.146,199.836 580.979,199.502 584,199.5C 588.442,199.326 592.609,199.993 596.5,201.5C 595.833,201.5 595.167,201.5 594.5,201.5C 588.211,200.628 581.878,200.295 575.5,200.5 Z"/></g>
<g><path style="opacity:0.314" fill="#581c31" d="M 90.5,196.5 C 92.0418,197.301 93.7085,197.634 95.5,197.5C 95.5,197.833 95.5,198.167 95.5,198.5C 82.5,198.5 69.5,198.5 56.5,198.5C 56.5401,203.193 56.8734,207.859 57.5,212.5C 55.3982,207.526 55.0648,202.359 56.5,197C 67.8284,196.5 79.1618,196.333 90.5,196.5 Z"/></g>
<g><path style="opacity:1" fill="#e4e3e4" d="M 575.5,200.5 C 581.878,200.295 588.211,200.628 594.5,201.5C 594.389,203.648 595.056,203.981 596.5,202.5C 598.913,204.409 600.747,206.743 602,209.5C 603.64,208.875 605.473,208.875 607.5,209.5C 610.164,211.484 611.831,214.151 612.5,217.5C 614.132,224.044 614.799,230.711 614.5,237.5C 599.5,237.5 584.5,237.5 569.5,237.5C 568.945,241.012 569.612,244.012 571.5,246.5C 576.427,253.222 583.094,255.388 591.5,253C 593.196,251.824 594.862,250.657 596.5,249.5C 597.289,249.217 597.956,248.717 598.5,248C 603.5,247.333 608.5,247.333 613.5,248C 611.598,249.394 611.265,251.227 612.5,253.5C 609.518,260.666 604.184,264.999 596.5,266.5C 590.178,267.014 583.845,267.347 577.5,267.5C 575.379,267.675 573.379,267.341 571.5,266.5C 571.027,265.094 570.027,264.427 568.5,264.5C 568.167,264.5 567.833,264.5 567.5,264.5C 566.738,262.738 565.404,261.738 563.5,261.5C 562.738,259.738 561.404,258.738 559.5,258.5C 557.404,255.738 555.738,252.738 554.5,249.5C 552.901,238.413 553.235,227.413 555.5,216.5C 557.482,214.498 559.148,212.165 560.5,209.5C 561.167,207.5 562.5,206.167 564.5,205.5C 566.848,205.408 568.514,204.408 569.5,202.5C 571.898,202.741 573.898,202.074 575.5,200.5 Z M 589.5,214.5 C 589.842,215.338 590.508,215.672 591.5,215.5C 592.5,217.167 593.833,218.5 595.5,219.5C 595.5,219.833 595.5,220.167 595.5,220.5C 596.089,222.352 596.756,224.185 597.5,226C 588.5,226.667 579.5,226.667 570.5,226C 571.38,224.644 571.714,223.144 571.5,221.5C 573.5,218.833 575.833,216.5 578.5,214.5C 582.329,214.073 585.996,214.073 589.5,214.5 Z"/></g>
<g><path style="opacity:0.839" fill="#8a4035" d="M 255.5,183.5 C 261.39,191.988 262.89,201.321 260,211.5C 259.626,213.491 258.793,215.158 257.5,216.5C 258.927,211.872 259.594,207.038 259.5,202C 259.672,197.601 259.006,193.435 257.5,189.5C 256.833,187.5 256.167,185.5 255.5,183.5 Z"/></g>
<g><path style="opacity:0.998" fill="#e7e7e7" d="M 320.5,280.5 C 317.862,285.127 313.862,287.794 308.5,288.5C 304.167,288.5 299.833,288.5 295.5,288.5C 295.5,284.5 295.5,280.5 295.5,276.5C 298.86,276.384 302.193,276.051 305.5,275.5C 305.5,274.167 305.5,272.833 305.5,271.5C 305.5,248.167 305.5,224.833 305.5,201.5C 311.167,201.5 316.833,201.5 322.5,201.5C 322.667,225.836 322.5,250.169 322,274.5C 321.187,276.436 320.687,278.436 320.5,280.5 Z"/></g>
<g><path style="opacity:0.487" fill="#646263" d="M 394.5,266.5 C 394.5,244.833 394.5,223.167 394.5,201.5C 388.833,201.5 383.167,201.5 377.5,201.5C 377.829,215.01 377.496,228.344 376.5,241.5C 376.5,227.833 376.5,214.167 376.5,200.5C 382.833,200.5 389.167,200.5 395.5,200.5C 395.831,222.673 395.497,244.673 394.5,266.5 Z"/></g>
<g><path style="opacity:1" fill="#e4e4e4" d="M 352.5,243.5 C 352.5,243.833 352.5,244.167 352.5,244.5C 352.025,247.313 353.025,249.313 355.5,250.5C 356.609,250.557 357.609,250.89 358.5,251.5C 358.611,252.117 358.944,252.617 359.5,253C 362.367,253.801 365.034,253.634 367.5,252.5C 368.514,251.326 369.847,250.66 371.5,250.5C 375.459,248.927 377.125,245.927 376.5,241.5C 377.496,228.344 377.829,215.01 377.5,201.5C 383.167,201.5 388.833,201.5 394.5,201.5C 394.5,223.167 394.5,244.833 394.5,266.5C 388.833,267.833 383.167,267.833 377.5,266.5C 377.665,263.15 377.498,259.817 377,256.5C 375.961,257.244 375.461,258.244 375.5,259.5C 371.167,265.666 365.167,268.666 357.5,268.5C 345.098,268.421 337.432,262.421 334.5,250.5C 334.5,234.167 334.5,217.833 334.5,201.5C 340.167,201.5 345.833,201.5 351.5,201.5C 351.171,215.677 351.504,229.677 352.5,243.5 Z"/></g>
<g><path style="opacity:1" fill="#dedddd" d="M 451.5,176.5 C 451.833,176.5 452.167,176.5 452.5,176.5C 452.5,188.5 452.5,200.5 452.5,212.5C 449.402,212.413 449.068,212.913 451.5,214C 449.773,216.904 449.107,220.07 449.5,223.5C 448.11,222.101 447.11,220.434 446.5,218.5C 446.027,217.094 445.027,216.427 443.5,216.5C 435.049,213.573 428.716,215.907 424.5,223.5C 423.778,223.918 423.278,224.584 423,225.5C 422.503,228.146 422.336,230.813 422.5,233.5C 423.222,237.876 424.222,242.209 425.5,246.5C 425.833,248.833 427.167,250.167 429.5,250.5C 430.167,250.833 430.833,251.167 431.5,251.5C 431.611,252.117 431.944,252.617 432.5,253C 434,253.167 435.5,253.333 437,253.5C 439.544,253.664 441.71,252.997 443.5,251.5C 444.5,249.833 445.833,248.5 447.5,247.5C 447.36,249.124 448.027,250.29 449.5,251C 447.365,251.759 446.032,253.259 445.5,255.5C 447.056,257.701 448.223,257.701 449,255.5C 449.278,256.416 449.778,257.082 450.5,257.5C 450.167,258.167 449.833,258.833 449.5,259.5C 448.167,260.167 447.167,261.167 446.5,262.5C 443.365,265.946 439.365,267.779 434.5,268C 430.023,268.574 425.69,268.074 421.5,266.5C 421.027,265.094 420.027,264.427 418.5,264.5C 416.973,264.573 415.973,263.906 415.5,262.5C 414.738,260.738 413.404,259.738 411.5,259.5C 411.5,259.167 411.5,258.833 411.5,258.5C 411.005,256.518 410.505,254.518 410,252.5C 408.334,253.34 408.167,252.84 409.5,251C 408.473,250.487 407.473,249.987 406.5,249.5C 405.076,247.485 404.41,245.152 404.5,242.5C 404.105,234.687 404.939,227.02 407,219.5C 407.465,218.069 408.299,216.903 409.5,216C 408.748,215.329 408.414,214.496 408.5,213.5C 409.906,213.027 410.573,212.027 410.5,210.5C 411.906,210.027 412.573,209.027 412.5,207.5C 420.366,199.702 429.699,197.536 440.5,201C 443.106,201.792 445.106,203.292 446.5,205.5C 447.167,206.833 448.167,207.833 449.5,208.5C 449.783,209.289 450.283,209.956 451,210.5C 451.5,199.172 451.667,187.838 451.5,176.5 Z"/></g>
<g><path style="opacity:0.882" fill="#8c8a8a" d="M 499.5,200.5 C 497.898,202.074 495.898,202.741 493.5,202.5C 495.102,200.926 497.102,200.259 499.5,200.5 Z"/></g>
<g><path style="opacity:1" fill="#e4e3e3" d="M 519.5,203.5 C 520.962,206.039 522.629,208.372 524.5,210.5C 524.56,211.043 524.893,211.376 525.5,211.5C 526.487,208.232 526.82,204.898 526.5,201.5C 531.833,201.5 537.167,201.5 542.5,201.5C 542.784,225.855 542.451,250.188 541.5,274.5C 539.129,281.868 534.129,286.534 526.5,288.5C 518.913,289.981 511.247,290.648 503.5,290.5C 498.64,290.54 494.307,289.207 490.5,286.5C 490.027,285.094 489.027,284.427 487.5,284.5C 482.687,281.195 480.354,276.862 480.5,271.5C 486.591,271.211 492.591,271.545 498.5,272.5C 498.5,274.5 499.5,275.5 501.5,275.5C 502.167,275.833 502.833,276.167 503.5,276.5C 503.918,277.222 504.584,277.722 505.5,278C 509.833,278.667 514.167,278.667 518.5,278C 519.056,277.617 519.389,277.117 519.5,276.5C 522.621,275.712 524.288,273.712 524.5,270.5C 524.5,270.167 524.5,269.833 524.5,269.5C 525.647,265.354 525.814,261.02 525,256.5C 524.283,257.044 523.783,257.711 523.5,258.5C 521.757,261.558 519.09,263.558 515.5,264.5C 508.5,265.833 501.5,265.833 494.5,264.5C 494.167,264.5 493.833,264.5 493.5,264.5C 492.738,262.738 491.404,261.738 489.5,261.5C 488.738,259.738 487.404,258.738 485.5,258.5C 482.153,254.805 480.153,250.472 479.5,245.5C 478.788,238.857 478.454,232.191 478.5,225.5C 478.649,220.205 480.316,215.538 483.5,211.5C 485.587,210.415 486.92,208.749 487.5,206.5C 489.404,206.262 490.738,205.262 491.5,203.5C 491.842,202.662 492.508,202.328 493.5,202.5C 495.898,202.741 497.898,202.074 499.5,200.5C 506.529,198.904 513.195,199.904 519.5,203.5 Z M 506.5,215.5 C 511.551,215.042 516.217,216.042 520.5,218.5C 521.11,220.434 522.11,222.101 523.5,223.5C 524.354,229.121 524.687,234.788 524.5,240.5C 523.043,245.095 520.376,248.761 516.5,251.5C 512.434,251.693 508.434,251.36 504.5,250.5C 503.167,249.5 501.833,248.5 500.5,247.5C 500.34,245.847 499.674,244.514 498.5,243.5C 498.01,240.345 497.344,237.345 496.5,234.5C 497.403,231.609 497.736,228.609 497.5,225.5C 499.12,221.918 501.453,218.918 504.5,216.5C 505.492,216.672 506.158,216.338 506.5,215.5 Z"/></g>
<g><path style="opacity:0.867" fill="#8e8e8e" d="M 575.5,200.5 C 573.898,202.074 571.898,202.741 569.5,202.5C 571.102,200.926 573.102,200.259 575.5,200.5 Z"/></g>
<g><path style="opacity:0.639" fill="#722c38" d="M 75.5,191.5 C 78.1667,191.833 80.8333,192.167 83.5,192.5C 93.4176,193.474 103.418,193.807 113.5,193.5C 113.934,200.405 112.934,207.071 110.5,213.5C 109.5,213.5 108.5,213.5 107.5,213.5C 111.393,207.811 113.059,201.478 112.5,194.5C 108.167,194.5 103.833,194.5 99.5,194.5C 95.1667,194.5 90.8333,194.5 86.5,194.5C 82.4661,194.483 78.7994,193.483 75.5,191.5 Z"/></g>
<g><path style="opacity:1" fill="#d03761" d="M 79.5,199.5 C 84.5,199.5 89.5,199.5 94.5,199.5C 94.335,202.85 94.5017,206.183 95,209.5C 96.0391,210.71 97.2058,211.71 98.5,212.5C 98.5569,213.609 98.8902,214.609 99.5,215.5C 99.9175,216.222 100.584,216.722 101.5,217C 98.8532,217.315 98.1865,218.482 99.5,220.5C 98.3112,221.429 96.9778,221.762 95.5,221.5C 95.3748,227.203 95.7081,232.87 96.5,238.5C 93.4824,238.296 90.4824,237.963 87.5,237.5C 86.063,236.275 84.3964,235.275 82.5,234.5C 81.3554,233.224 81.3554,231.891 82.5,230.5C 79.7698,229.811 77.4365,228.478 75.5,226.5C 80.6928,224.697 80.6928,223.364 75.5,222.5C 75.3342,217.821 75.5008,213.155 76,208.5C 77.6462,207.059 77.8129,205.392 76.5,203.5C 77.2858,201.959 78.2858,200.626 79.5,199.5 Z"/></g>
<g><path style="opacity:1" fill="#8a3a31" d="M 151.5,199.5 C 151.483,203.534 150.483,207.201 148.5,210.5C 147.946,206.256 148.946,202.59 151.5,199.5 Z"/></g>
<g><path style="opacity:0.541" fill="#666566" d="M 491.5,203.5 C 490.738,205.262 489.404,206.262 487.5,206.5C 488.262,204.738 489.596,203.738 491.5,203.5 Z"/></g>
<g><path style="opacity:0.543" fill="#908f90" d="M 541.5,274.5 C 542.451,250.188 542.784,225.855 542.5,201.5C 537.167,201.5 531.833,201.5 526.5,201.5C 526.82,204.898 526.487,208.232 525.5,211.5C 524.893,211.376 524.56,211.043 524.5,210.5C 525.477,207.713 525.81,204.713 525.5,201.5C 531.31,200.51 537.31,200.177 543.5,200.5C 543.667,224.502 543.5,248.502 543,272.5C 542.722,273.416 542.222,274.082 541.5,274.5 Z"/></g>
<g><path style="opacity:0.671" fill="#8c898b" d="M 569.5,202.5 C 568.514,204.408 566.848,205.408 564.5,205.5C 565.659,203.75 567.326,202.75 569.5,202.5 Z"/></g>
<g><path style="opacity:1" fill="#bebcbd" d="M 594.5,201.5 C 595.167,201.5 595.833,201.5 596.5,201.5C 601.336,202.685 605.003,205.351 607.5,209.5C 605.473,208.875 603.64,208.875 602,209.5C 600.747,206.743 598.913,204.409 596.5,202.5C 595.056,203.981 594.389,203.648 594.5,201.5 Z"/></g>
<g><path style="opacity:0.039" fill="#292829" d="M 525.5,201.5 C 525.81,204.713 525.477,207.713 524.5,210.5C 522.629,208.372 520.962,206.039 519.5,203.5C 520.815,204.476 522.148,205.476 523.5,206.5C 524.17,204.709 524.837,203.042 525.5,201.5 Z"/></g>
<g><path style="opacity:1" fill="#c03467" d="M 175.5,175.5 C 173.029,178.679 173.029,181.845 175.5,185C 174.352,186.726 173.185,186.559 172,184.5C 171.971,187.02 173.137,189.02 175.5,190.5C 174.32,192.454 173.654,194.621 173.5,197C 174.022,200.968 175.022,204.801 176.5,208.5C 174.955,209.452 173.288,209.785 171.5,209.5C 171.5,210.833 171.5,212.167 171.5,213.5C 172.833,213.5 174.167,213.5 175.5,213.5C 175.579,214.93 175.246,216.264 174.5,217.5C 176.045,218.452 177.712,218.785 179.5,218.5C 182.059,218.198 184.393,218.532 186.5,219.5C 178.778,219.767 171.111,219.434 163.5,218.5C 160.748,210.741 159.915,202.741 161,194.5C 163.108,185.915 167.941,179.582 175.5,175.5 Z"/></g>
<g><path style="opacity:0.365" fill="#5b5b5b" d="M 446.5,205.5 C 448.5,205.5 449.5,206.5 449.5,208.5C 448.167,207.833 447.167,206.833 446.5,205.5 Z"/></g>
<g><path style="opacity:0.749" fill="#747373" d="M 487.5,206.5 C 486.92,208.749 485.587,210.415 483.5,211.5C 484.08,209.251 485.413,207.585 487.5,206.5 Z"/></g>
<g><path style="opacity:0.09" fill="#462429" d="M 95.5,200.5 C 96.3438,203.345 97.0104,206.345 97.5,209.5C 96.8826,209.389 96.3826,209.056 96,208.5C 95.5026,205.854 95.3359,203.187 95.5,200.5 Z"/></g>
<g><path style="opacity:1" fill="#e53f55" d="M 95.5,66.5 C 104.518,66.4484 113.518,66.7817 122.5,67.5C 122.833,67.5 123.167,67.5 123.5,67.5C 124.167,68.1667 124.833,68.8333 125.5,69.5C 120.834,68.3486 116.167,68.3486 111.5,69.5C 113.5,70.5 115.5,71.5 117.5,72.5C 115.651,74.6422 113.651,75.8089 111.5,76C 113.25,78.5132 113.416,81.3465 112,84.5C 110.989,85.3366 109.822,85.67 108.5,85.5C 108.351,86.552 108.517,87.552 109,88.5C 109.893,87.2888 110.726,87.2888 111.5,88.5C 110.897,90.4523 111.23,92.4523 112.5,94.5C 113.325,95.3857 114.325,95.719 115.5,95.5C 115.822,100.444 115.822,105.277 115.5,110C 117.017,111.685 118.684,113.185 120.5,114.5C 120.698,117.785 122.365,119.452 125.5,119.5C 125.243,122.926 123.577,125.426 120.5,127C 121.333,127.833 122.167,128.667 123,129.5C 123.772,133.89 123.606,138.223 122.5,142.5C 122.808,143.308 123.308,143.975 124,144.5C 124.267,162.991 123.434,181.324 121.5,199.5C 121.688,204.962 122.355,210.295 123.5,215.5C 123.333,217.833 123.167,220.167 123,222.5C 121.795,223.071 120.628,223.738 119.5,224.5C 121.5,225.333 123.5,226.167 125.5,227C 123.744,227.202 122.078,227.702 120.5,228.5C 120.709,229.086 121.043,229.586 121.5,230C 119.228,230.941 117.228,232.274 115.5,234C 117.175,234.985 118.842,235.819 120.5,236.5C 115.676,238.151 110.676,238.817 105.5,238.5C 105.334,231.825 105.5,225.158 106,218.5C 108.803,216.698 110.969,214.365 112.5,211.5C 113.086,211.709 113.586,212.043 114,212.5C 114.309,211.234 114.809,210.067 115.5,209C 114.833,208.667 114.167,208.333 113.5,208C 114.824,203.067 114.824,198.234 113.5,193.5C 113.5,193.167 113.5,192.833 113.5,192.5C 109.366,191.515 105.032,191.182 100.5,191.5C 100.334,186.489 100.501,181.489 101,176.5C 103.33,172.959 106.164,169.959 109.5,167.5C 111.411,167.426 112.578,166.426 113,164.5C 113.414,164.957 113.914,165.291 114.5,165.5C 114.833,164.167 115.167,162.833 115.5,161.5C 115.317,154.72 114.317,148.22 112.5,142C 113.333,141.167 114.167,140.333 115,139.5C 117.055,133.209 115.221,129.542 109.5,128.5C 112.722,127.567 114.388,125.4 114.5,122C 113.298,119.097 111.965,116.264 110.5,113.5C 111.127,110.25 111.461,106.917 111.5,103.5C 111.483,100.087 110.816,97.0866 109.5,94.5C 108.833,93.5 108.167,92.5 107.5,91.5C 106.71,90.5987 105.71,89.9321 104.5,89.5C 101.642,88.834 98.6417,88.1674 95.5,87.5C 95.5,85.8333 95.5,84.1667 95.5,82.5C 96.325,81.6143 97.325,81.281 98.5,81.5C 98.6495,80.448 98.4828,79.448 98,78.5C 97.6667,78.8333 97.3333,79.1667 97,79.5C 96.1667,78 95,76.8333 93.5,76C 95.4205,74.8777 97.4205,74.0444 99.5,73.5C 99.33,72.1779 99.6634,71.0113 100.5,70C 98.8659,69.5065 97.1992,69.3398 95.5,69.5C 95.5,68.5 95.5,67.5 95.5,66.5 Z"/></g>
<g><path style="opacity:0.459" fill="#717071" d="M 412.5,207.5 C 412.573,209.027 411.906,210.027 410.5,210.5C 410.427,208.973 411.094,207.973 412.5,207.5 Z"/></g>
<g><path style="opacity:0.906" fill="#918f8f" d="M 560.5,209.5 C 559.148,212.165 557.482,214.498 555.5,216.5C 556.01,213.326 557.677,210.992 560.5,209.5 Z"/></g>
<g><path style="opacity:0.812" fill="#87333b" d="M 218.5,199.5 C 219.643,202.976 219.81,206.642 219,210.5C 218.623,211.942 217.79,212.942 216.5,213.5C 218.113,208.993 218.779,204.327 218.5,199.5 Z"/></g>
<g><path style="opacity:0.447" fill="#777577" d="M 410.5,210.5 C 410.573,212.027 409.906,213.027 408.5,213.5C 408.427,211.973 409.094,210.973 410.5,210.5 Z"/></g>
<g><path style="opacity:0.503" fill="#575757" d="M 589.5,214.5 C 585.996,214.073 582.329,214.073 578.5,214.5C 582.167,211.833 585.833,211.833 589.5,214.5 Z"/></g>
<g><path style="opacity:0.475" fill="#6e6b6c" d="M 352.5,243.5 C 351.504,229.677 351.171,215.677 351.5,201.5C 345.833,201.5 340.167,201.5 334.5,201.5C 334.5,217.833 334.5,234.167 334.5,250.5C 333.503,234.008 333.17,217.342 333.5,200.5C 339.833,200.5 346.167,200.5 352.5,200.5C 352.5,214.833 352.5,229.167 352.5,243.5 Z"/></g>
<g><path style="opacity:0.396" fill="#722c35" d="M 98.5,212.5 C 101.306,214.619 104.306,214.952 107.5,213.5C 107.389,214.117 107.056,214.617 106.5,215C 104.19,215.497 101.857,215.663 99.5,215.5C 98.8902,214.609 98.5569,213.609 98.5,212.5 Z"/></g>
<g><path style="opacity:0.528" fill="#75313c" d="M 201.5,204.5 C 201.556,209.731 200.889,214.731 199.5,219.5C 199.54,214.807 199.873,210.141 200.5,205.5C 200.5,204.833 200.833,204.5 201.5,204.5 Z"/></g>
<g><path style="opacity:0.18" fill="#5f5d5d" d="M 506.5,215.5 C 509.304,214.362 512.304,214.195 515.5,215C 517.881,215.223 519.547,216.39 520.5,218.5C 516.217,216.042 511.551,215.042 506.5,215.5 Z"/></g>
<g><path style="opacity:1" fill="#7e7c7d" d="M 408.5,213.5 C 408.414,214.496 408.748,215.329 409.5,216C 408.299,216.903 407.465,218.069 407,219.5C 404.939,227.02 404.105,234.687 404.5,242.5C 403.348,237.015 403.182,231.349 404,225.5C 404.707,221.106 406.207,217.106 408.5,213.5 Z"/></g>
<g><path style="opacity:0.478" fill="#5a5058" d="M 591.5,215.5 C 593.833,215.833 595.167,217.167 595.5,219.5C 593.833,218.5 592.5,217.167 591.5,215.5 Z"/></g>
<g><path style="opacity:0.616" fill="#706f6f" d="M 443.5,216.5 C 445.027,216.427 446.027,217.094 446.5,218.5C 444.973,218.573 443.973,217.906 443.5,216.5 Z"/></g>
<g><path style="opacity:1" fill="#da3b5b" d="M 113.5,193.5 C 114.824,198.234 114.824,203.067 113.5,208C 114.167,208.333 114.833,208.667 115.5,209C 114.809,210.067 114.309,211.234 114,212.5C 113.586,212.043 113.086,211.709 112.5,211.5C 110.969,214.365 108.803,216.698 106,218.5C 105.5,225.158 105.334,231.825 105.5,238.5C 102.5,238.5 99.5,238.5 96.5,238.5C 95.7081,232.87 95.3748,227.203 95.5,221.5C 96.9778,221.762 98.3112,221.429 99.5,220.5C 98.1865,218.482 98.8532,217.315 101.5,217C 100.584,216.722 99.9175,216.222 99.5,215.5C 101.857,215.663 104.19,215.497 106.5,215C 107.056,214.617 107.389,214.117 107.5,213.5C 108.5,213.5 109.5,213.5 110.5,213.5C 112.934,207.071 113.934,200.405 113.5,193.5 Z"/></g>
<g><path style="opacity:0.996" fill="#a34140" d="M 148.5,210.5 C 147.54,215.086 145.54,219.086 142.5,222.5C 142.798,217.581 144.798,213.581 148.5,210.5 Z"/></g>
<g><path style="opacity:1" fill="#e74251" d="M 221.5,156.5 C 221.5,158.167 221.5,159.833 221.5,161.5C 222.5,161.5 223.5,161.5 224.5,161.5C 223.585,172.817 223.585,183.817 224.5,194.5C 222.565,195.068 221.232,196.235 220.5,198C 220.792,204.418 222.126,210.585 224.5,216.5C 224.154,221.179 223.821,226.012 223.5,231C 223.263,234.441 223.929,237.607 225.5,240.5C 224.05,241.85 223.383,243.516 223.5,245.5C 218.404,245.273 215.404,247.607 214.5,252.5C 215.552,252.649 216.552,252.483 217.5,252C 218.39,249.419 220.057,248.086 222.5,248C 222.957,248.414 223.291,248.914 223.5,249.5C 220.176,250.159 218.843,252.159 219.5,255.5C 217.801,255.34 216.134,255.506 214.5,256C 215.888,256.889 215.722,257.389 214,257.5C 212.681,256.681 211.515,255.681 210.5,254.5C 213.053,254.46 214.053,252.794 213.5,249.5C 212.167,249.5 210.833,249.5 209.5,249.5C 209.281,248.325 209.614,247.325 210.5,246.5C 216.641,245.075 216.974,242.908 211.5,240C 213.007,238.527 213.674,236.693 213.5,234.5C 213.154,230.568 212.487,226.735 211.5,223C 213.141,221.871 214.141,220.371 214.5,218.5C 215.441,216.95 216.107,215.284 216.5,213.5C 217.79,212.942 218.623,211.942 219,210.5C 219.81,206.642 219.643,202.976 218.5,199.5C 218.368,196.203 216.702,194.537 213.5,194.5C 213.719,193.325 213.386,192.325 212.5,191.5C 211.893,191.624 211.56,191.957 211.5,192.5C 210.761,192.631 210.094,192.464 209.5,192C 210.716,185.39 210.716,179.057 209.5,173C 210.448,172.517 211.448,172.351 212.5,172.5C 212.75,169.495 211.417,167.662 208.5,167C 211.044,164.907 214.044,163.907 217.5,164C 218.467,161.228 219.801,158.728 221.5,156.5 Z"/></g>
<g><path style="opacity:0.809" fill="#82334a" d="M 163.5,218.5 C 171.111,219.434 178.778,219.767 186.5,219.5C 190.833,219.5 195.167,219.5 199.5,219.5C 199.389,220.117 199.056,220.617 198.5,221C 187.5,221.667 176.5,221.667 165.5,221C 164.619,220.292 163.953,219.458 163.5,218.5 Z"/></g>
<g><path style="opacity:0.718" fill="#83373f" d="M 216.5,213.5 C 216.107,215.284 215.441,216.95 214.5,218.5C 212.427,220.58 210.093,222.246 207.5,223.5C 210.529,220.141 213.529,216.808 216.5,213.5 Z"/></g>
<g><path style="opacity:0.987" fill="#a3a3a3" d="M 504.5,216.5 C 501.453,218.918 499.12,221.918 497.5,225.5C 497.67,224.178 497.337,223.011 496.5,222C 498.677,220.814 499.677,218.981 499.5,216.5C 501.167,216.5 502.833,216.5 504.5,216.5 Z"/></g>
<g><path style="opacity:1" fill="#9a3356" d="M 63.5,224.5 C 65.0174,224.511 66.1841,225.177 67,226.5C 69.4659,225.223 71.9659,225.223 74.5,226.5C 73.1666,227.62 72.6666,228.953 73,230.5C 77.1957,231.875 80.6957,234.208 83.5,237.5C 75.1784,235.675 68.5117,231.342 63.5,224.5 Z"/></g>
<g><path style="opacity:0.561" fill="#6f2b34" d="M 207.5,223.5 C 206.925,225.411 205.925,227.078 204.5,228.5C 203.078,229.925 201.411,230.925 199.5,231.5C 201.833,228.5 204.5,225.833 207.5,223.5 Z"/></g>
<g><path style="opacity:0.392" fill="#757373" d="M 595.5,220.5 C 597.821,222.09 598.821,224.423 598.5,227.5C 588.833,227.5 579.167,227.5 569.5,227.5C 569.259,225.102 569.926,223.102 571.5,221.5C 571.714,223.144 571.38,224.644 570.5,226C 579.5,226.667 588.5,226.667 597.5,226C 596.756,224.185 596.089,222.352 595.5,220.5 Z"/></g>
<g><path style="opacity:0.545" fill="#7a7879" d="M 451.5,176.5 C 457.31,175.51 463.31,175.177 469.5,175.5C 469.5,206.167 469.5,236.833 469.5,267.5C 463.31,267.823 457.31,267.49 451.5,266.5C 457.167,266.5 462.833,266.5 468.5,266.5C 468.5,236.5 468.5,206.5 468.5,176.5C 463.167,176.5 457.833,176.5 452.5,176.5C 452.167,176.5 451.833,176.5 451.5,176.5 Z"/></g>
<g><path style="opacity:0.252" fill="#565656" d="M 478.5,225.5 C 478.454,232.191 478.788,238.857 479.5,245.5C 478.003,241.777 477.337,237.777 477.5,233.5C 477.503,230.645 477.836,227.978 478.5,225.5 Z"/></g>
<g><path style="opacity:0.075" fill="#404040" d="M 424.5,223.5 C 424.101,227.011 423.434,230.344 422.5,233.5C 422.336,230.813 422.503,228.146 423,225.5C 423.278,224.584 423.778,223.918 424.5,223.5 Z"/></g>
<g><path style="opacity:0.029" fill="#4c4b4b" d="M 523.5,223.5 C 524.222,223.918 524.722,224.584 525,225.5C 525.816,230.684 525.65,235.684 524.5,240.5C 524.687,234.788 524.354,229.121 523.5,223.5 Z"/></g>
<g><path style="opacity:0.912" fill="#928f90" d="M 555.5,216.5 C 553.235,227.413 552.901,238.413 554.5,249.5C 550.318,238.376 550.651,227.376 555.5,216.5 Z"/></g>
<g><path style="opacity:1" fill="#be4842" d="M 257.5,216.5 C 256.453,220.261 254.619,223.594 252,226.5C 246.965,231.703 241.798,236.703 236.5,241.5C 236.167,241.5 235.833,241.5 235.5,241.5C 236.018,238.64 237.684,236.64 240.5,235.5C 240.023,234.522 239.357,233.689 238.5,233C 240.473,232.505 242.473,232.338 244.5,232.5C 244.64,230.876 243.973,229.71 242.5,229C 243.025,228.308 243.692,227.808 244.5,227.5C 247.399,228.494 248.066,227.494 246.5,224.5C 248.045,223.548 249.712,223.215 251.5,223.5C 251.5,222.167 251.5,220.833 251.5,219.5C 253.988,219.317 255.988,218.317 257.5,216.5 Z"/></g>
<g><path style="opacity:0.114" fill="#524e4f" d="M 449.5,223.5 C 450.222,223.918 450.722,224.584 451,225.5C 451.815,230.352 451.648,235.019 450.5,239.5C 450.676,234.12 450.342,228.787 449.5,223.5 Z"/></g>
<g><path style="opacity:0.976" fill="#963743" d="M 142.5,222.5 C 137.965,230.284 131.299,235.451 122.5,238C 109.294,241.487 96.2936,241.32 83.5,237.5C 84.8333,237.5 86.1667,237.5 87.5,237.5C 90.4824,237.963 93.4824,238.296 96.5,238.5C 99.5,238.5 102.5,238.5 105.5,238.5C 110.676,238.817 115.676,238.151 120.5,236.5C 125.112,235.075 129.445,233.075 133.5,230.5C 136.48,229.171 137.813,226.837 137.5,223.5C 139.292,223.634 140.958,223.301 142.5,222.5 Z"/></g>
<g><path style="opacity:0.694" fill="#752d3d" d="M 199.5,231.5 C 197.167,235.833 193.833,239.167 189.5,241.5C 192.5,237.833 195.833,234.5 199.5,231.5 Z"/></g>
<g><path style="opacity:0.479" fill="#807f80" d="M 612.5,217.5 C 613.6,219.277 614.434,221.277 615,223.5C 615.499,228.489 615.666,233.489 615.5,238.5C 600.5,238.5 585.5,238.5 570.5,238.5C 570.833,241.167 571.167,243.833 571.5,246.5C 569.612,244.012 568.945,241.012 569.5,237.5C 584.5,237.5 599.5,237.5 614.5,237.5C 614.799,230.711 614.132,224.044 612.5,217.5 Z"/></g>
<g><path style="opacity:1" fill="#e33f55" d="M 214.5,218.5 C 214.141,220.371 213.141,221.871 211.5,223C 212.487,226.735 213.154,230.568 213.5,234.5C 213.674,236.693 213.007,238.527 211.5,240C 216.974,242.908 216.641,245.075 210.5,246.5C 209.614,247.325 209.281,248.325 209.5,249.5C 210.833,249.5 212.167,249.5 213.5,249.5C 214.053,252.794 213.053,254.46 210.5,254.5C 211.515,255.681 212.681,256.681 214,257.5C 215.722,257.389 215.888,256.889 214.5,256C 216.134,255.506 217.801,255.34 219.5,255.5C 218.843,252.159 220.176,250.159 223.5,249.5C 223.291,248.914 222.957,248.414 222.5,248C 220.057,248.086 218.39,249.419 217.5,252C 216.552,252.483 215.552,252.649 214.5,252.5C 215.404,247.607 218.404,245.273 223.5,245.5C 224.287,247.104 225.62,247.771 227.5,247.5C 227.5,248.167 227.5,248.833 227.5,249.5C 225.451,252.55 222.784,254.883 219.5,256.5C 216.911,257.419 214.911,259.086 213.5,261.5C 211.801,261.34 210.134,261.506 208.5,262C 209.38,263.356 209.714,264.856 209.5,266.5C 212.833,266.5 216.167,266.5 219.5,266.5C 220.139,268.76 221.306,270.76 223,272.5C 223.193,277.75 223.693,282.917 224.5,288C 231.492,288.5 238.492,288.666 245.5,288.5C 248.833,288.5 252.167,288.5 255.5,288.5C 238.008,289.497 220.341,289.83 202.5,289.5C 202.5,289.167 202.5,288.833 202.5,288.5C 201.682,272.574 201.182,256.574 201,240.5C 200.25,239.874 199.416,239.374 198.5,239C 199.126,238.25 199.626,237.416 200,236.5C 200.333,236.833 200.667,237.167 201,237.5C 201.352,235.753 201.852,234.086 202.5,232.5C 203.6,231.395 204.267,230.062 204.5,228.5C 205.925,227.078 206.925,225.411 207.5,223.5C 210.093,222.246 212.427,220.58 214.5,218.5 Z"/></g>
<g><path style="opacity:1" fill="#da3a5b" d="M 202.5,232.5 C 201.852,234.086 201.352,235.753 201,237.5C 200.667,237.167 200.333,236.833 200,236.5C 199.626,237.416 199.126,238.25 198.5,239C 199.416,239.374 200.25,239.874 201,240.5C 201.182,256.574 201.682,272.574 202.5,288.5C 199.223,288.784 196.057,288.451 193,287.5C 192.752,275.152 192.252,262.818 191.5,250.5C 191.919,242.434 195.585,236.434 202.5,232.5 Z"/></g>
<g><path style="opacity:0.929" fill="#7e7c7d" d="M 496.5,234.5 C 497.344,237.345 498.01,240.345 498.5,243.5C 496.612,241.012 495.945,238.012 496.5,234.5 Z"/></g>
<g><path style="opacity:0.055" fill="#66262d" d="M 235.5,241.5 C 235.833,241.5 236.167,241.5 236.5,241.5C 234.12,244.881 231.12,247.547 227.5,249.5C 227.5,248.833 227.5,248.167 227.5,247.5C 229.749,246.92 231.415,245.587 232.5,243.5C 233.5,242.833 234.5,242.167 235.5,241.5 Z"/></g>
<g><path style="opacity:0.898" fill="#7f797e" d="M 450.5,241.5 C 450.975,244.313 449.975,246.313 447.5,247.5C 448.508,245.456 449.508,243.456 450.5,241.5 Z"/></g>
<g><path style="opacity:0.012" fill="#5a585a" d="M 498.5,243.5 C 499.674,244.514 500.34,245.847 500.5,247.5C 498.896,246.713 498.229,245.38 498.5,243.5 Z"/></g>
<g><path style="opacity:0.226" fill="#535252" d="M 320.5,280.5 C 320.687,278.436 321.187,276.436 322,274.5C 322.5,250.169 322.667,225.836 322.5,201.5C 316.833,201.5 311.167,201.5 305.5,201.5C 305.5,224.833 305.5,248.167 305.5,271.5C 305.167,271.5 304.833,271.5 304.5,271.5C 304.5,247.833 304.5,224.167 304.5,200.5C 310.833,200.5 317.167,200.5 323.5,200.5C 323.667,225.502 323.5,250.502 323,275.5C 322.626,277.491 321.793,279.158 320.5,280.5 Z"/></g>
<g><path style="opacity:0.768" fill="#aba8aa" d="M 612.5,253.5 C 611.265,251.227 611.598,249.394 613.5,248C 608.5,247.333 603.5,247.333 598.5,248C 597.956,248.717 597.289,249.217 596.5,249.5C 596.414,248.504 596.748,247.671 597.5,247C 603.528,246.17 609.528,246.336 615.5,247.5C 614.864,249.78 613.864,251.78 612.5,253.5 Z"/></g>
<g><path style="opacity:0.902" fill="#919091" d="M 376.5,241.5 C 377.125,245.927 375.459,248.927 371.5,250.5C 373.736,247.77 375.402,244.77 376.5,241.5 Z"/></g>
<g><path style="opacity:0.647" fill="#615f5f" d="M 425.5,246.5 C 427.167,247.5 428.5,248.833 429.5,250.5C 427.167,250.167 425.833,248.833 425.5,246.5 Z"/></g>
<g><path style="opacity:0.627" fill="#757475" d="M 352.5,244.5 C 353.492,246.456 354.492,248.456 355.5,250.5C 353.025,249.313 352.025,247.313 352.5,244.5 Z"/></g>
<g><path style="opacity:0.18" fill="#4d4b4b" d="M 504.5,250.5 C 508.434,251.36 512.434,251.693 516.5,251.5C 513.024,252.643 509.358,252.81 505.5,252C 504.944,251.617 504.611,251.117 504.5,250.5 Z"/></g>
<g><path style="opacity:0.929" fill="#842f47" d="M 189.5,241.5 C 188.167,243.167 186.833,244.833 185.5,246.5C 180.833,250.833 176.167,255.167 171.5,259.5C 176.5,252.5 182.5,246.5 189.5,241.5 Z"/></g>
<g><path style="opacity:0.408" fill="#7e7c7d" d="M 358.5,251.5 C 361.43,252.299 364.43,252.632 367.5,252.5C 365.034,253.634 362.367,253.801 359.5,253C 358.944,252.617 358.611,252.117 358.5,251.5 Z"/></g>
<g><path style="opacity:1" fill="#a8a7a8" d="M 406.5,249.5 C 407.473,249.987 408.473,250.487 409.5,251C 408.167,252.84 408.334,253.34 410,252.5C 410.505,254.518 411.005,256.518 411.5,258.5C 408.55,256.272 406.884,253.272 406.5,249.5 Z"/></g>
<g><path style="opacity:0.384" fill="#7c7a7b" d="M 431.5,251.5 C 435.484,252.743 439.484,252.743 443.5,251.5C 441.71,252.997 439.544,253.664 437,253.5C 435.5,253.333 434,253.167 432.5,253C 431.944,252.617 431.611,252.117 431.5,251.5 Z"/></g>
<g><path style="opacity:1" fill="#d2395f" d="M 204.5,228.5 C 204.267,230.062 203.6,231.395 202.5,232.5C 195.585,236.434 191.919,242.434 191.5,250.5C 192.252,262.818 192.752,275.152 193,287.5C 196.057,288.451 199.223,288.784 202.5,288.5C 202.5,288.833 202.5,289.167 202.5,289.5C 195.833,289.5 189.167,289.5 182.5,289.5C 182.5,288.833 182.167,288.5 181.5,288.5C 182.752,282.168 183.419,275.668 183.5,269C 183.49,262.922 183.157,256.922 182.5,251C 184.141,249.871 185.141,248.371 185.5,246.5C 186.833,244.833 188.167,243.167 189.5,241.5C 193.833,239.167 197.167,235.833 199.5,231.5C 201.411,230.925 203.078,229.925 204.5,228.5 Z"/></g>
<g><path style="opacity:1" fill="#c93564" d="M 185.5,246.5 C 185.141,248.371 184.141,249.871 182.5,251C 183.157,256.922 183.49,262.922 183.5,269C 183.419,275.668 182.752,282.168 181.5,288.5C 176.489,288.666 171.489,288.499 166.5,288C 167.784,286.703 167.617,285.536 166,284.5C 165.667,285.5 165.333,286.5 165,287.5C 164.333,284.167 164.333,280.833 165,277.5C 167.607,271.574 169.773,265.574 171.5,259.5C 176.167,255.167 180.833,250.833 185.5,246.5 Z"/></g>
<g><path style="opacity:0.525" fill="#616060" d="M 485.5,258.5 C 487.404,258.738 488.738,259.738 489.5,261.5C 487.596,261.262 486.262,260.262 485.5,258.5 Z"/></g>
<g><path style="opacity:0.498" fill="#515051" d="M 559.5,258.5 C 561.404,258.738 562.738,259.738 563.5,261.5C 561.596,261.262 560.262,260.262 559.5,258.5 Z"/></g>
<g><path style="opacity:0.035" fill="#692427" d="M 219.5,256.5 C 218.089,258.914 216.089,260.581 213.5,261.5C 214.911,259.086 216.911,257.419 219.5,256.5 Z"/></g>
<g><path style="opacity:0.584" fill="#655f65" d="M 411.5,259.5 C 413.404,259.738 414.738,260.738 415.5,262.5C 413.596,262.262 412.262,261.262 411.5,259.5 Z"/></g>
<g><path style="opacity:0.206" fill="#404040" d="M 377.5,266.5 C 376.833,264.167 376.167,261.833 375.5,259.5C 375.461,258.244 375.961,257.244 377,256.5C 377.498,259.817 377.665,263.15 377.5,266.5 Z"/></g>
<g><path style="opacity:0.037" fill="#2b292a" d="M 524.5,269.5 C 524.815,265.629 524.482,261.962 523.5,258.5C 523.783,257.711 524.283,257.044 525,256.5C 525.814,261.02 525.647,265.354 524.5,269.5 Z"/></g>
<g><path style="opacity:0.024" fill="#494949" d="M 449.5,259.5 C 449.5,261.5 448.5,262.5 446.5,262.5C 447.167,261.167 448.167,260.167 449.5,259.5 Z"/></g>
<g><path style="opacity:0.549" fill="#6f6d6e" d="M 489.5,261.5 C 491.404,261.738 492.738,262.738 493.5,264.5C 491.596,264.262 490.262,263.262 489.5,261.5 Z"/></g>
<g><path style="opacity:0.588" fill="#757173" d="M 563.5,261.5 C 565.404,261.738 566.738,262.738 567.5,264.5C 565.596,264.262 564.262,263.262 563.5,261.5 Z"/></g>
<g><path style="opacity:0.047" fill="#343232" d="M 450.5,257.5 C 451.477,260.287 451.81,263.287 451.5,266.5C 450.833,264.167 450.167,261.833 449.5,259.5C 449.833,258.833 450.167,258.167 450.5,257.5 Z"/></g>
<g><path style="opacity:0.247" fill="#595757" d="M 418.5,264.5 C 420.027,264.427 421.027,265.094 421.5,266.5C 419.973,266.573 418.973,265.906 418.5,264.5 Z"/></g>
<g><path style="opacity:0.685" fill="#7c787b" d="M 494.5,264.5 C 501.5,265.833 508.5,265.833 515.5,264.5C 512.332,266.182 508.832,267.182 505,267.5C 501.168,267.182 497.668,266.182 494.5,264.5 Z"/></g>
<g><path style="opacity:0.227" fill="#5b5b5b" d="M 568.5,264.5 C 570.027,264.427 571.027,265.094 571.5,266.5C 569.973,266.573 568.973,265.906 568.5,264.5 Z"/></g>
<g><path style="opacity:1" fill="#e94a48" d="M 219.5,266.5 C 228.167,266.5 236.833,266.5 245.5,266.5C 246.263,267.268 247.263,267.768 248.5,268C 246.089,269.583 243.422,270.583 240.5,271C 242.101,271.273 243.601,271.773 245,272.5C 245.499,277.823 245.666,283.156 245.5,288.5C 238.492,288.666 231.492,288.5 224.5,288C 223.693,282.917 223.193,277.75 223,272.5C 221.306,270.76 220.139,268.76 219.5,266.5 Z"/></g>
<g><path style="opacity:1" fill="#ea5141" d="M 245.5,266.5 C 248.833,266.5 252.167,266.5 255.5,266.5C 255.5,273.5 255.5,280.5 255.5,287.5C 255.5,287.833 255.5,288.167 255.5,288.5C 252.167,288.5 248.833,288.5 245.5,288.5C 245.666,283.156 245.499,277.823 245,272.5C 243.601,271.773 242.101,271.273 240.5,271C 243.422,270.583 246.089,269.583 248.5,268C 247.263,267.768 246.263,267.268 245.5,266.5 Z"/></g>
<g><path style="opacity:0.418" fill="#797878" d="M 596.5,266.5 C 592.761,267.922 588.761,268.589 584.5,268.5C 581.975,268.497 579.641,268.163 577.5,267.5C 583.845,267.347 590.178,267.014 596.5,266.5 Z"/></g>
<g><path style="opacity:0.271" fill="#585657" d="M 480.5,271.5 C 483.314,270.835 486.314,270.502 489.5,270.5C 492.913,270.517 495.913,271.184 498.5,272.5C 492.591,271.545 486.591,271.211 480.5,271.5 Z"/></g>
<g><path style="opacity:1" fill="#d65953" d="M 213.5,261.5 C 213.167,262.5 212.5,263.167 211.5,263.5C 210.957,263.56 210.624,263.893 210.5,264.5C 225.819,265.499 241.152,265.833 256.5,265.5C 256.825,273.019 256.492,280.352 255.5,287.5C 255.5,280.5 255.5,273.5 255.5,266.5C 252.167,266.5 248.833,266.5 245.5,266.5C 236.833,266.5 228.167,266.5 219.5,266.5C 216.167,266.5 212.833,266.5 209.5,266.5C 209.714,264.856 209.38,263.356 208.5,262C 210.134,261.506 211.801,261.34 213.5,261.5 Z"/></g>
<g><path style="opacity:0.62" fill="#686868" d="M 498.5,272.5 C 499.833,273.167 500.833,274.167 501.5,275.5C 499.5,275.5 498.5,274.5 498.5,272.5 Z"/></g>
<g><path style="opacity:0.553" fill="#6d6d6d" d="M 524.5,270.5 C 524.288,273.712 522.621,275.712 519.5,276.5C 521.196,274.475 522.863,272.475 524.5,270.5 Z"/></g>
<g><path style="opacity:0.827" fill="#868485" d="M 304.5,271.5 C 304.833,271.5 305.167,271.5 305.5,271.5C 305.5,272.833 305.5,274.167 305.5,275.5C 302.193,276.051 298.86,276.384 295.5,276.5C 295.5,280.5 295.5,284.5 295.5,288.5C 299.833,288.5 304.167,288.5 308.5,288.5C 307.469,289.249 306.302,289.915 305,290.5C 301.27,289.54 297.437,289.207 293.5,289.5C 293.5,284.833 293.5,280.167 293.5,275.5C 298.138,276.344 301.805,275.011 304.5,271.5 Z"/></g>
<g><path style="opacity:0.933" fill="#908d8f" d="M 503.5,276.5 C 508.825,277.761 514.158,277.761 519.5,276.5C 519.389,277.117 519.056,277.617 518.5,278C 514.167,278.667 509.833,278.667 505.5,278C 504.584,277.722 503.918,277.222 503.5,276.5 Z"/></g>
<g><path style="opacity:0.435" fill="#6b6b6b" d="M 487.5,284.5 C 489.027,284.427 490.027,285.094 490.5,286.5C 488.973,286.573 487.973,285.906 487.5,284.5 Z"/></g>
<g><path style="opacity:1" fill="#a93961" d="M 171.5,259.5 C 169.773,265.574 167.607,271.574 165,277.5C 164.333,280.833 164.333,284.167 165,287.5C 165.333,286.5 165.667,285.5 166,284.5C 167.617,285.536 167.784,286.703 166.5,288C 171.489,288.499 176.489,288.666 181.5,288.5C 182.167,288.5 182.5,288.833 182.5,289.5C 180.167,289.5 177.833,289.5 175.5,289.5C 171.5,289.5 167.5,289.5 163.5,289.5C 163.5,285.167 163.5,280.833 163.5,276.5C 164.31,269.883 166.977,264.216 171.5,259.5 Z"/></g>
<g><path style="opacity:0.648" fill="#511c2c" d="M 163.5,276.5 C 163.5,280.833 163.5,285.167 163.5,289.5C 167.5,289.5 171.5,289.5 175.5,289.5C 178.625,290.479 181.958,290.813 185.5,290.5C 177.982,291.709 170.315,291.709 162.5,290.5C 162.181,285.637 162.514,280.97 163.5,276.5 Z"/></g>
<g><path style="opacity:0.673" fill="#8a3f41" d="M 211.5,263.5 C 226.658,264.496 241.991,264.83 257.5,264.5C 257.831,273.192 257.498,281.859 256.5,290.5C 255.833,290.833 255.167,291.167 254.5,291.5C 231.545,290.51 208.545,290.177 185.5,290.5C 181.958,290.813 178.625,290.479 175.5,289.5C 177.833,289.5 180.167,289.5 182.5,289.5C 189.167,289.5 195.833,289.5 202.5,289.5C 220.341,289.83 238.008,289.497 255.5,288.5C 255.5,288.167 255.5,287.833 255.5,287.5C 256.492,280.352 256.825,273.019 256.5,265.5C 241.152,265.833 225.819,265.499 210.5,264.5C 210.624,263.893 210.957,263.56 211.5,263.5 Z"/></g>
<g><path style="opacity:0.358" fill="#6b696a" d="M 526.5,288.5 C 523.797,289.963 520.797,290.796 517.5,291C 512.648,291.815 507.981,291.648 503.5,290.5C 511.247,290.648 518.913,289.981 526.5,288.5 Z"/></g>
</svg>
